<?xml version="1.0" encoding="utf-8"?>
<!-- Generator: Adobe Illustrator 18.0.0, SVG Export Plug-In . SVG Version: 6.00 Build 0)  -->
<!DOCTYPE svg PUBLIC "-//W3C//DTD SVG 1.1 Tiny//EN" "http://www.w3.org/Graphics/SVG/1.1/DTD/svg11-tiny.dtd">
<svg version="1.1" baseProfile="tiny" id="Layer_1" xmlns="http://www.w3.org/2000/svg" xmlns:xlink="http://www.w3.org/1999/xlink"
	 x="0px" y="0px" viewBox="0 0 1292 1292" xml:space="preserve">
<g>
	<g>
		<path fill="none" stroke="#F3DFC1" stroke-width="2" stroke-linecap="round" stroke-linejoin="round" stroke-miterlimit="10" d="
			M902,983c5.5-3.3,7.1-8,7.2-14.5c0.3-14.5,1.8-29,2.8-43.5c0.4-6.3,0.7-12.7,1-19c0.7-15.3,1.2-30.7,2-46
			c1.2-20.5,2.7-41,3.9-61.5c0.9-15,1.2-30,2.1-45c0.8-14.8,2-29.7,2.9-44.5c0.4-6.3,0.7-12.7,1-19c0.4-9.5,0.5-19,1.1-28.5
			c0.8-14.5,2-29,2.9-43.5c0.4-6.3,0.7-12.7,1-19c0.7-15.3,1.2-30.7,2-46c1.2-20.5,2.7-41,3.9-61.5c0.9-15.2,1.2-30.3,2.1-45.5
			c0.8-14.7,2-29.3,2.9-44c0.4-6.3,0.7-12.7,1-19c0.4-9.3,0.5-18.7,1.1-28c0.8-14.3,2-28.7,2.9-43c0.4-6.3,0.7-12.7,1-19
			c0.4-9.5,0.6-19,1-28.5c0.3-6.3,0.8-12.6,1.3-19.3c-2.5,0-4.1,0-6.3,0c-4-4.1,0-9.9-1.9-14.7c-31.1,10-62.1,19.9-93.1,30
			c-38,12.3-76,24.7-114,37c-13.8,4.5-27.6,9.3-41.6,13.3c-3.6,1.1-8,0.2-11.9-0.4c-15.7-2.3-31.3-5-47-7.4
			c-28.2-4.3-56.3-8.3-84.5-12.5c-18.5-2.8-37-5.7-55.5-8.5c-27.5-4.2-55-8.3-82.5-12.5c-18.5-2.8-37-5.7-55.5-8.5
			c-16.5-2.5-33-5-49.5-7.5c-1.5-0.2-3-1-4.5-1.5"/>
		<path fill="none" stroke="#F3DFC1" stroke-width="2" stroke-linecap="round" stroke-linejoin="round" stroke-miterlimit="10" d="
			M297,266c-4,1-8,2-12.5,3.1c0.3,6.8,0.5,13.6,1,20.4c0.8,11.7,1.7,23.3,2.5,35c1.2,16.7,2.4,33.3,3.5,50c0.9,13.5,1.6,27,2.5,40.5
			c1.1,17,2.4,34,3.5,51c0.9,13.5,1.6,27,2.5,40.5c1.1,17.2,2.4,34.3,3.5,51.5c0.9,13.7,1.6,27.3,2.5,41c1.4,21.7,3.1,43.3,4.5,65
			c1.1,17.2,1.9,34.3,3.1,51.5c1.2,18.3,2.7,36.7,4,55c0.9,13.7,1.6,27.3,2.5,41c1.1,17.2,2.4,34.3,3.5,51.5
			c0.9,13.7,1.6,27.3,2.5,41c1.4,21.7,3.1,43.3,4.5,65c1.1,17.2,2,34.3,3,51.5c0.2,4,0.7,8,1,12.4c3.7,1.5,7.6,3,11.5,4.6"/>
		<path fill="none" stroke="#F3DFC1" stroke-width="2" stroke-linecap="round" stroke-linejoin="round" stroke-miterlimit="10" d="
			M940.5,249.5c-0.2,8.2-0.1,16.3-0.6,24.5c-0.4,7.8-1.5,15.7-1.9,23.5c-0.5,9.7-0.5,19.3-1.1,29c-0.8,14.8-2,29.7-2.9,44.5
			c-0.4,6.3-0.7,12.7-1,19c-0.4,9.7-0.5,19.3-1.1,29c-0.8,14.7-2,29.3-2.9,44c-0.4,6.7-0.7,13.3-1,20c-0.4,9.7-0.5,19.3-1.1,29
			c-0.8,14.7-2,29.3-2.9,44c-0.4,6.7-0.7,13.3-1,20c-0.7,16-1.2,32-2.1,48c-1.2,20.8-2.7,41.7-3.9,62.5c-0.8,14.8-1.3,29.7-2.1,44.5
			c-0.9,16-2,32-3,48c-0.4,6.5-0.7,13-1,19.5c-0.4,9.7-0.5,19.3-1.1,29c-0.8,14.8-2,29.7-2.9,44.5c-0.4,6.3-0.7,12.7-1,19
			c-0.7,16-1.2,32-2,48c-0.8,15.3-1.9,30.7-2.9,46.9c-8.4,7.8-17.4,16.3-26.6,24.6c-8.7,7.9-17.7,15.6-26.5,23.5
			c-13.5,12.1-27,24.3-40.5,36.5c-0.3,0.2-1,0-1.5,0"/>
		<path fill="none" stroke="#F3DFC1" stroke-width="2" stroke-linecap="round" stroke-linejoin="round" stroke-miterlimit="10" d="
			M942,246.5c-1.5,1-2.9,2.3-4.5,2.9c-4.3,1.7-8.6,3.1-13.2,4.7c-0.6,10.5-1.2,21.2-1.8,31.9c-1,19-2.1,38-3,57
			c-0.7,15.2-1.3,30.3-2,45.5c-0.9,17.5-2,35-3,52.5c-0.6,10.8-1,21.7-1.5,32.5c-1,19-2,38-3,57c-0.7,14.7-1.3,29.3-2,44
			c-0.9,18-2,36-3,54c-0.8,14.7-1.3,29.3-2,44c-0.9,18-2,36-3,54c-0.8,14.7-1.3,29.3-2,44c-0.9,18.3-2,36.7-3,55
			c-0.7,14.3-1.3,28.7-2,43c-0.9,18.3-2,36.7-3,55c-0.7,14.5-1.4,29-2.1,44.3c-8.7,7.6-17.8,15.7-26.9,23.7
			c-9.5,8.3-19,16.7-28.5,25c-8.1,7.1-16.3,14-24.5,21"/>
		<path fill="none" stroke="#F3DFC1" stroke-width="2" stroke-linecap="round" stroke-linejoin="round" stroke-miterlimit="10" d="
			M930,226c-7.5-1.2-15-2.5-22.5-3.5c-13.6-1.7-27.3-3-41-4.6c-15.7-1.8-31.3-3.6-47-5.5c-15.8-1.9-31.7-4.1-47.5-6
			c-20.8-2.4-41.7-4.7-62.5-7c-19-2.1-38-4.3-57-6.5c-21.8-2.5-43.8-4.4-65.5-7.8c-11.9-1.9-22.5,2.3-33.5,4.4
			c-19.6,3.8-39,8.5-58.5,12.9c-24.2,5.4-48.3,11.1-72.5,16.5c-28.3,6.3-56.7,12.3-85,18.6c-12.5,2.8-25,6-37.5,9"/>
		<path fill="none" stroke="#F3DFC1" stroke-width="2" stroke-linecap="round" stroke-linejoin="round" stroke-miterlimit="10" d="
			M751,314c-0.3,21.7-0.6,43.3-1,65c-0.3,16.8-0.7,33.7-1,50.5c-0.3,17.2-0.7,34.3-1,51.5c-0.3,16.8-0.6,33.7-1,50.5
			c-0.1,4.5-0.4,9-0.7,14.1c-2.4,1.1-5.1,2.3-7.9,3.6c-0.4-0.3-0.8-0.5-1.2-0.8c0.5-4.8,0.9-9.6,1.4-14.5c0.1-1.3,0-2.7,0-4
			c0.2-16.3,0.3-32.7,0.5-49c0.3-18.2,0.7-36.3,1-54.5c0.3-18.8,0.7-37.7,1-56.5c0.3-17.7,0.7-35.3,1-53"/>
		<path fill="none" stroke="#F3DFC1" stroke-width="2" stroke-linecap="round" stroke-linejoin="round" stroke-miterlimit="10" d="
			M298.5,271.5c1,16,2,32,3,48c0.9,14.5,1.6,29,2.5,43.5c0.9,14.3,2,28.7,3,43c0.8,12,1.3,24,2,36c0.9,14.3,2,28.7,3,43
			c0.8,12.2,1.3,24.3,2,36.5c0.8,14,1.6,28,2.5,42c0.8,11.7,1.7,23.3,2.5,35c1,15.2,2.1,30.3,3,45.5c0.7,12,1.3,24,2,36
			c0.9,14.3,2.1,28.7,3,43c0.8,12.3,1.3,24.7,2,37c0.9,14.3,2,28.7,3,43c0.8,12,1.3,24,2,36c0.9,14.3,2,28.7,3,43
			c0.8,12,1.3,24,2,36c0.9,14.3,2.1,28.7,3,43c0.8,12.5,1.3,25,2,37.5c0.8,13.8,1.8,27.7,2.8,42.3c50.2,21.4,101,43,152.7,65
			c0-3.4,0.1-5.6,0-7.8c-0.2-2.3-0.8-4.7-0.9-7c-0.4-7.2-0.8-14.3-1-21.5c-0.6-19.5-1-39-1.5-58.5c-0.6-21.5-1.3-43-2-64.5
			c-0.5-16.2-1-32.3-1.5-48.5c-0.7-21.7-1.3-43.3-2-65c-0.4-12.2-0.9-24.3-1.4-36.6c9.3-8.4,15.2-9.3,23.9-3.4"/>
		<path fill="none" stroke="#F3DFC1" stroke-width="2" stroke-linecap="round" stroke-linejoin="round" stroke-miterlimit="10" d="
			M288.5,269c7.7,1.4,15.4,2.9,23.4,4.4c0.7,11.6,1.4,23.1,2.1,34.6c1,15.3,2,30.7,3,46c0.7,12,1.3,24,2,36c1,15.7,2,31.3,3,47
			c0.7,12,1.3,24,2,36c0.9,15.3,2,30.7,3,46c0.7,12,1.3,24,2,36c1,15.7,2,31.3,3,47c0.7,12,1.3,24,2,36c0.9,15.3,2,30.7,3,46
			c0.7,12,1.3,24,2,36c1,15.7,2,31.3,3,47c0.7,12,1.3,24,2,36c1.1,18.2,2.4,36.3,3.5,54.5c0.7,12,1.3,24,2,36c0.9,15.3,2,30.7,3,46
			c0.7,12.3,1.3,24.7,2,37c0.8,13,1.7,26,2.4,39c0.2,3,1.3,4.4,4,5.6c26.7,11.1,53.3,22.3,80,33.4c17,7.1,34,14,51,21
			c1.7,0.7,3.3,1.3,5,2"/>
		<path fill="none" stroke="#F3DFC1" stroke-width="2" stroke-linecap="round" stroke-linejoin="round" stroke-miterlimit="10" d="
			M811.5,655.5c2.7-1.2,5.5-2.4,8.1-3.6c0.7-9.4,1.5-18.4,1.9-27.4c0.7-17.5,1-35,1.6-52.5c0.6-19.5,1.3-39,2-58.5
			c0.7-19.2,1.3-38.3,2-57.5c0.7-19.5,1.3-39,2-58.5c0.7-19.2,1.3-38.3,2-57.5c0.6-16.5,1.3-33,2-49.5c0-0.8,0-1.7,0-3.5
			c-3.5,1.3-6.2,2.4-9,3.5"/>
		<path fill="none" stroke="#F3DFC1" stroke-width="2" stroke-linecap="round" stroke-linejoin="round" stroke-miterlimit="10" d="
			M372,1024c20.3-13.3,40.7-26.6,61-40c15.9-10.4,31.7-21,48.1-31.9c-0.2-4.3-0.4-8.9-0.6-13.6c-0.3-5.2-0.8-10.3-1-15.5
			c-0.6-17.7-1-35.3-1.5-53c-0.8-25.5-1.6-51-2.5-76.5c-0.5-13.5-1-27-1.5-40.5c-0.8-21.7-1.7-43.3-2.5-65c-0.2-5.5,0-11,0-16.2
			c-4.2-1.3-7.4-2.2-11-3.3c-3.1,3.3-1.3,7.7-1.4,11.5c-0.1,6.3,0.7,12.7,0.9,19c0.6,16.7,1,33.3,1.5,50c0.8,22,1.7,44,2.5,66
			c0.7,19,1.3,38,2,57c0.8,20.8,1.7,41.7,2.5,62.7c-37.1,23.9-74.3,47.8-111.6,71.8"/>
		<path fill="none" stroke="#F3DFC1" stroke-width="2" stroke-linecap="round" stroke-linejoin="round" stroke-miterlimit="10" d="
			M487,301.5c0.5,3.5,1.1,7,1.5,10.5c0.7,7.2,1.7,14.3,2,21.5c0.6,16.2,0.7,32.3,1.1,48.5c0.6,23.7,1.3,47.3,2,71
			c0.5,17.2,1,34.3,1.5,51.5c0.7,23.7,1.3,47.3,2,71c0.5,17.8,1,35.7,1.5,53.5c0.5,16,1,32,1.5,48c0,0.8-0.3,1.7-0.5,2.5"/>
		<path fill="none" stroke="#F3DFC1" stroke-width="2" stroke-linecap="round" stroke-linejoin="round" stroke-miterlimit="10" d="
			M823.5,291.5c-1,23.2-2,46.3-3,69.5c-0.4,10.7-0.7,21.3-1,32c-0.7,24-1.3,48-2,72c-0.6,20.2-1.3,40.3-2,60.5
			c-0.7,20.5-1.3,41-2,61.5c-0.5,15-1,30-1.5,45c-0.3,8.2-0.7,16.3-1.1,24.8c-21.1,12.8-42.5,25.7-63.9,38.7
			c-3.6,2.2-7.3,4.3-11,6.5"/>
		<path fill="none" stroke="#F3DFC1" stroke-width="2" stroke-linecap="round" stroke-linejoin="round" stroke-miterlimit="10" d="
			M923.5,255c-7.3,2.2-14.7,4.1-22,6.5c-26.4,8.9-52.7,18-79,27c-5.3,1.8-10.7,3.7-16.5,5.7c-0.2,1.6-0.5,3.4-0.5,5.3
			c-0.5,20.7-1,41.3-1.5,62c-0.4,16.8-1,33.7-1.5,50.5c-0.7,22.7-1.3,45.3-2,68c-0.5,16.5-1,33-1.5,49.5c-0.7,22.7-1.3,45.3-2,68
			c-0.4,12.7-0.7,25.3-1,38"/>
		<path fill="none" stroke="#F3DFC1" stroke-width="2" stroke-linecap="round" stroke-linejoin="round" stroke-miterlimit="10" d="
			M786,926c-15.3-5.2-30.7-10.4-46.6-15.8c0.5-24.7,1-49.7,1.5-74.4c22.5-15.7,44.4-30.9,66-46.1c0.3-5.3,0.5-10.3,0.8-15.9
			c-4.8-1.7-9.7-3.3-15.1-5.2c-37.6,25.4-75.3,50.8-113.5,76.6c-54.6-17.5-109.6-35-164.8-52.7c-3.9,2.3-7.9,4.6-11.7,6.9
			c0.6,9.4,1.5,18.7,1.8,28c0.5,16.2,0.7,32.3,1.1,48.5c0.6,23.7,1.3,47.3,2,71c0.5,17.2,1,34.3,1.5,51.5c0.7,23.7,1.3,47.3,2,71
			c0.4,13.7,1,27.3,1.5,41"/>
		<path fill="none" stroke="#F3DFC1" stroke-width="2" stroke-linecap="round" stroke-linejoin="round" stroke-miterlimit="10" d="
			M516,820.5c0.3,18.5,0.6,37,1,55.5c0.4,19.5,1,39,1.5,58.5c0.5,19.2,1,38.3,1.5,57.5c0.5,19.5,1,39,1.5,58.5c0.4,16,1,32,1.5,48
			c0.1,1.7,0,3.3,0,4.7c-3.9,2.9-7.4,5.5-11,8.1c-4.1-2-8-3.9-12-5.9"/>
		<path fill="none" stroke="#F3DFC1" stroke-width="2" stroke-linecap="round" stroke-linejoin="round" stroke-miterlimit="10" d="
			M806.5,791c-0.7,23.8-1.3,47.7-2,71.5c-0.4,14-1,28-1.5,42c-0.9,26.7-1.7,53.3-2.5,80c-0.5,14.7-1,29.3-1.5,44
			c-0.5,16.7-1,33.3-1.5,50"/>
		<path fill="none" stroke="#F3DFC1" stroke-width="2" stroke-linecap="round" stroke-linejoin="round" stroke-miterlimit="10" d="
			M312.5,274c5.3,0.7,10.7,1.2,16,2c22.8,3.5,45.7,7,68.5,10.5c14.8,2.3,29.7,4.6,44.5,7c1.2,0.2,2.3,0.9,4.5,1.8
			c0,6.4-0.1,13.3,0,20.1c0.4,16.5,0.9,33,1.5,49.5c0.8,22.2,1.7,44.3,2.5,66.5c0.7,18.2,1.3,36.3,2,54.5c0.8,23.7,1.7,47.3,2.5,71
			c0.1,2,0.5,4,0.7,5.8c7.6,3.3,14.8,3.6,21.8-0.8"/>
		<path fill="none" stroke="#F3DFC1" stroke-width="2" stroke-linecap="round" stroke-linejoin="round" stroke-miterlimit="10" d="
			M479.5,667.5c0.5,0.8,1.4,1.6,1.4,2.5c0.6,9.3,1.2,18.7,1.5,28c0.8,24.7,1.3,49.3,2,74c0.4,15.3,1,30.7,1.5,46
			c0.7,20.8,1.3,41.7,2,62.5c0.5,16,1.1,32,1.5,48c0.2,6,0,12,0,18.5c-2.5,1.3-5.3,2.6-8,4"/>
		<path fill="none" stroke="#F3DFC1" stroke-width="2" stroke-linecap="round" stroke-linejoin="round" stroke-miterlimit="10" d="
			M458.5,297.5c0.8,27.2,1.6,54.3,2.5,81.5c0.5,14.2,1,28.3,1.5,42.5c0.8,24.8,1.7,49.7,2.5,74.5c0.5,14.3,0.9,28.7,1.5,43
			c0.4,8.5,1,17,1.5,25.5"/>
		<path fill="none" stroke="#F3DFC1" stroke-width="2" stroke-linecap="round" stroke-linejoin="round" stroke-miterlimit="10" d="
			M724.5,546c0.2-15.3,0.3-30.7,0.5-46c0.3-21,0.7-42,1-63c0.3-22,0.6-44,1-66c0.3-15.2,0.7-30.3,1-45.5c0-1.4,0-2.7,0-5
			c-8,2.7-15.2,5.2-22.5,7.4c-7,2.1-13.6,6.3-21.5,4.6c-6.5-1.4-13-2.5-19.5-3.5c-16.5-2.6-33-4.9-49.5-7.6
			c-19.2-3.1-38.3-6.4-57.5-9.5c-19.2-3.1-38.3-6.2-57.5-8.8c-3.3-0.4-7,1.8-10.5,2.8"/>
		<path fill="none" stroke="#F3DFC1" stroke-width="2" stroke-linecap="round" stroke-linejoin="round" stroke-miterlimit="10" d="
			M469.5,299.5c0.8,27.2,1.7,54.3,2.5,81.5c0.5,14.8,1,29.7,1.5,44.5c0.9,26.8,1.7,53.7,2.5,80.5c0.5,14.8,1,29.7,1.5,44.5
			c0.1,3.4,0.4,6.7,0.6,10.3c1.2-0.1,2-0.2,2.8-0.3"/>
		<path fill="none" stroke="#F3DFC1" stroke-width="2" stroke-linecap="round" stroke-linejoin="round" stroke-miterlimit="10" d="
			M486,304.5c-3.7-0.4-7.4-0.8-12-1.3c0,4-0.1,8.2,0,12.3c0.2,7.3,0.7,14.7,1,22c0.4,13.3,0.6,26.7,1,40c0.6,22.2,1.3,44.3,2,66.5
			c0.5,14.8,1,29.7,1.5,44.5c0.5,13.5,1,27,1.5,40.5c0.4,12.5,0.7,25,1,37.5c0.7,23.5,1.3,47,2,70.5c0.3,9.8,0.9,19.7,1.5,29.5
			c0.2,2.7,0.6,5.3,1,8"/>
		<path fill="none" stroke="#F3DFC1" stroke-width="2" stroke-linecap="round" stroke-linejoin="round" stroke-miterlimit="10" d="
			M502.5,304.5c0.3,18.2,0.6,36.3,1,54.5c0.4,18.5,1,37,1.5,55.5c0.5,19.8,1,39.7,1.5,59.5c0.5,18.3,1,36.7,1.5,55
			c0.5,20,1,40,1.5,60c0.5,18.8,1,37.7,1.5,56.5c0.1,3.7,0.6,7.3,1,11"/>
		<path fill="none" stroke="#F3DFC1" stroke-width="2" stroke-linecap="round" stroke-linejoin="round" stroke-miterlimit="10" d="
			M736.5,549c-8-1.7-16-3.2-24-5c-34.8-7.8-69.7-15.7-104.5-23.5c-7.7-1.7-15.4-3.2-23.4-4.8c-24.8,10.7-50,21.5-75.1,32.3"/>
		<path fill="none" stroke="#F3DFC1" stroke-width="2" stroke-linecap="round" stroke-linejoin="round" stroke-miterlimit="10" d="
			M723,664.5c-7.8-1.8-15.7-3.5-23.5-5.5c-17.4-4.4-34.7-9-52-13.5c-20.3-5.3-40.7-10.6-61.5-16.1c-20.2,10.1-40.7,20.4-61.8,31.1
			c-7.5-3.1-15.7-5.5-23.2,2.4c12.3,3.5,24.7,7.1,37.1,10.6c13.3,3.7,26.7,7.3,40,11c21.5,6,43,12,64.5,18
			c13.7,3.8,27.3,7.7,41,11.5c1.7,0.5,3.7,0.4,5.5,0.5"/>
		<path fill="none" stroke="#F3DFC1" stroke-width="2" stroke-linecap="round" stroke-linejoin="round" stroke-miterlimit="10" d="
			M487,675.5c5.7,2,11.2,4.3,17,6c37.3,10.8,74.6,21.5,112,32c23,6.5,46,12.7,69.5,19.2c0-5.8,0-11.5,0-17.2"/>
		<path fill="none" stroke="#F3DFC1" stroke-width="2" stroke-linecap="round" stroke-linejoin="round" stroke-miterlimit="10" d="
			M795,767c1.7-1.1,3.4-2.3,5.4-3.6c4.8,1.3,9.9,2.8,15.6,4.3c0,4.9,0.1,10.1,0,15.3c-0.2,6.5-0.7,13-0.9,19.5
			c-0.6,17.3-1,34.7-1.5,52c-0.8,24.5-1.7,49-2.4,73.5c-0.3,9.7,0,19.3,0,28.7c12.6,4.3,25.5,8.8,38.5,13.3c7.5,2.6,15,5,22.5,7.5
			c0.9,0.3,1.7,1,2.5,1.5"/>
		<path fill="none" stroke="#F3DFC1" stroke-width="2" stroke-linecap="round" stroke-linejoin="round" stroke-miterlimit="10" d="
			M505,799.5c13.8,4.7,27.6,9.5,41.5,14c16.8,5.5,33.7,10.6,50.5,16c22.7,7.3,45.3,14.6,68,22c6.9,2.2,13.7,4.6,21.6,7.2
			c1.1-1.5,2.5-3.3,3.9-5.2"/>
		<path fill="none" stroke="#F3DFC1" stroke-width="2" stroke-linecap="round" stroke-linejoin="round" stroke-miterlimit="10" d="
			M505,816.5c25.5,8.3,51,16.7,76.5,25c32.8,10.7,65.7,21.2,98.4,32.2c3.5,1.2,5.6,0.8,8.3-1.2c0.3-4.8,0.5-9.6,0.8-14.5"/>
		<path fill="none" stroke="#F3DFC1" stroke-width="2" stroke-linecap="round" stroke-linejoin="round" stroke-miterlimit="10" d="
			M526,660.5c16.5,4.7,33,9.4,49.5,14c26.2,7.4,52.3,14.7,78.5,22c8.3,2.3,16.7,4.4,25,6.5"/>
		<path fill="none" stroke="#F3DFC1" stroke-width="2" stroke-linecap="round" stroke-linejoin="round" stroke-miterlimit="10" d="
			M347,1027.5c11.8,4.8,23.7,9.6,35.5,14.5c29.2,12.1,58.3,24.3,87.5,36.5c9.4,3.9,18.7,8,28,12"/>
		<path fill="none" stroke="#F3DFC1" stroke-width="2" stroke-linecap="round" stroke-linejoin="round" stroke-miterlimit="10" d="
			M790.5,802.5c-0.5,21.7-1,43.3-1.5,65c-0.4,16.8-1,33.7-1.5,50.5c-0.7,23-1.3,46-2,69c-0.5,16.2-1,32.3-1.5,48.5
			c-0.4,12.8-0.9,25.7-1.4,38.8c4.2,1.6,8.6,3.3,13.6,5.3c2.3-1.6,5.1-3.4,7.7-5.6c0.9-0.8,1.4-2.6,1.5-3.9
			c0.6-11.5,1.1-23,1.6-34.5c0.7-16.3,1.4-32.7,2-49c0.3-8,0.3-16,0.6-24c0.1-1.7,0.6-3.3,1-5"/>
		<path fill="none" stroke="#F3DFC1" stroke-width="2" stroke-linecap="round" stroke-linejoin="round" stroke-miterlimit="10" d="
			M729.5,646c-6.2-1.8-12.3-3.9-18.5-5.5c-24.5-6.3-49-12.4-73.5-18.5c-13.7-3.5-27.3-7-41-10.4c-1.3-0.3-3,0.6-4.5,0.9"/>
		<path fill="none" stroke="#F3DFC1" stroke-width="2" stroke-linecap="round" stroke-linejoin="round" stroke-miterlimit="10" d="
			M509,524.5c21.4-8.8,42.7-17.5,64-26.2c7.3,1.7,14.7,3.6,22,5.2c22.2,4.9,44.3,9.7,66.5,14.5c19.8,4.2,39.7,8.3,59.5,12.5
			c1,0.2,2,0.7,3,1"/>
		<path fill="none" stroke="#F3DFC1" stroke-width="2" stroke-linecap="round" stroke-linejoin="round" stroke-miterlimit="10" d="
			M512,642.5c20.9-10.1,41.7-20.2,62.3-30.1c6.3,1.7,12.5,3.5,18.7,5.1c29.7,7.7,59.3,15.4,89,23c12.3,3.1,24.7,6,37,9.1
			c1.2,0.3,2.3,1,3.5,1.5"/>
		<path fill="none" stroke="#F3DFC1" stroke-width="2" stroke-linecap="round" stroke-linejoin="round" stroke-miterlimit="10" d="
			M724,525.5c-18.3-4-36.7-8-55-12c-17.7-3.8-35.3-7.7-53-11.5c-7.2-1.5-14.3-3-21.5-4.5c-1.3-0.3-2.7,0-4,0"/>
		<path fill="none" stroke="#F3DFC1" stroke-width="2" stroke-linecap="round" stroke-linejoin="round" stroke-miterlimit="10" d="
			M479,940c-39.5,25.8-79,51.7-118.5,77.5c-0.4,0.3-1,0.3-1.5,0.5"/>
		<path fill="none" stroke="#F3DFC1" stroke-width="2" stroke-linecap="round" stroke-linejoin="round" stroke-miterlimit="10" d="
			M809,641c-26.7,15.8-53.3,31.7-80,47.5c-10.3,6.1-20.7,12.3-31,18.5"/>
		<path fill="none" stroke="#F3DFC1" stroke-width="2" stroke-linecap="round" stroke-linejoin="round" stroke-miterlimit="10" d="
			M805,775c-34.7,23.8-69.3,47.7-104,71.5c-2.9,2-5.7,4-8.5,6"/>
		<path fill="none" stroke="#F3DFC1" stroke-width="2" stroke-linecap="round" stroke-linejoin="round" stroke-miterlimit="10" d="
			M674,708c5.3,1.5,10.7,3,16,4.4c0,5.4,0,10.7,0,17.4c10.9-6.6,20.9-12.6,32-19.3c0,3.9,0.1,7,0,10c-0.3,15.2-0.7,30.3-1,45.5
			c-0.2,15.2-0.4,30.3-0.5,45.5c0,1.7,0.3,3.3,0.5,5"/>
		<path fill="none" stroke="#F3DFC1" stroke-width="2" stroke-linecap="round" stroke-linejoin="round" stroke-miterlimit="10" d="
			M723,710c3.6-2.2,7.3-4.4,12-7.3c0,8.5,0,16.2,0,23.8c0,1.7-0.4,3.3-0.5,5c-0.2,15.8-0.4,31.7-0.5,47.5c-0.1,9.5,0,19,0,28.5"/>
		<path fill="none" stroke="#F3DFC1" stroke-width="2" stroke-linecap="round" stroke-linejoin="round" stroke-miterlimit="10" d="
			M743.5,699c-0.3,21-0.6,42-1,63c-0.2,12.3-0.7,24.7-1,37c0,1.2,0.3,2.3,0.5,3.5"/>
		<path fill="none" stroke="#F3DFC1" stroke-width="2" stroke-linecap="round" stroke-linejoin="round" stroke-miterlimit="10" d="
			M740.5,837c-6.9,4.4-13.8,8.8-21.2,13.5c0,24.9,0,49.7,0,75.2c3.1,1,7.1,2.2,11.6,3.6c0.5-29.2,1.1-57.7,1.6-86.2"/>
		<path fill="none" stroke="#F3DFC1" stroke-width="2" stroke-linecap="round" stroke-linejoin="round" stroke-miterlimit="10" d="
			M901,973.5c-13.8,12.3-27.6,24.7-41.5,37c-17.4,15.4-35,30.7-52.5,46"/>
		<path fill="none" stroke="#F3DFC1" stroke-width="2" stroke-linecap="round" stroke-linejoin="round" stroke-miterlimit="10" d="
			M811.5,934.5c17.8,6,35.7,12,53.5,18c7.5,2.5,15,5,22.5,7.5"/>
		<path fill="none" stroke="#F3DFC1" stroke-width="2" stroke-linecap="round" stroke-linejoin="round" stroke-miterlimit="10" d="
			M811.5,943.5c24.2,8,48.3,16,72.5,24c0.8,0.2,1.3,1,2,1.5"/>
		<path fill="none" stroke="#F3DFC1" stroke-width="2" stroke-linecap="round" stroke-linejoin="round" stroke-miterlimit="10" d="
			M583,501.5c-20.3,8.7-40.7,17.4-61,26c-4.4,1.9-9,3.4-13.5,5"/>
		<path fill="none" stroke="#F3DFC1" stroke-width="2" stroke-linecap="round" stroke-linejoin="round" stroke-miterlimit="10" d="
			M583,617c-23,11.3-46,22.7-69,34c-0.6,0.3-1.3,0.3-2,0.5"/>
		<path fill="none" stroke="#F3DFC1" stroke-width="2" stroke-linecap="round" stroke-linejoin="round" stroke-miterlimit="10" d="
			M731.5,916.5c17.3,5.8,34.7,11.7,52,17.5c0.9,0.3,2,0.4,3,0.5"/>
		<path fill="none" stroke="#F3DFC1" stroke-width="2" stroke-linecap="round" stroke-linejoin="round" stroke-miterlimit="10" d="
			M805.5,295c-7.3,2.2-14.7,4.1-22,6.5c-17.9,5.9-35.7,12-53.5,18c-0.6,0.2-1,1-1.5,1.5"/>
		<path fill="none" stroke="#F3DFC1" stroke-width="2" stroke-linecap="round" stroke-linejoin="round" stroke-miterlimit="10" d="
			M731.5,929c6.3,2.3,12.6,4.8,19,7c11.6,4.1,23.3,8,35,12"/>
		<path fill="none" stroke="#F3DFC1" stroke-width="2" stroke-linecap="round" stroke-linejoin="round" stroke-miterlimit="10" d="
			M810.5,640c-4.7-1.3-9.3-2.8-14-3.9c-1.2-0.3-2.7,0.7-4,1.4c-14.4,8.3-28.7,16.6-43,25c-2.2,1.3-4.3,2.8-7,2
			c-0.1,0-0.4,0.3-0.5,0.5c-0.1,0.3,0,0.7,0,1"/>
		<path fill="none" stroke="#F3DFC1" stroke-width="2" stroke-linecap="round" stroke-linejoin="round" stroke-miterlimit="10" d="
			M735,671c-20,11.7-40,23.3-60,35"/>
		<path fill="none" stroke="#F3DFC1" stroke-width="2" stroke-linecap="round" stroke-linejoin="round" stroke-miterlimit="10" d="
			M719,851.5c-8.8,6-17.6,12.1-26.6,17.9c-1.9,1.3-4.6,1.4-6.9,2.1"/>
		<path fill="none" stroke="#F3DFC1" stroke-width="2" stroke-linecap="round" stroke-linejoin="round" stroke-miterlimit="10" d="
			M744,664c0-5,0-10,0-16.2c-6.1,7.3-12.5,5.5-19,3.2"/>
		<path fill="none" stroke="#F3DFC1" stroke-width="2" stroke-linecap="round" stroke-linejoin="round" stroke-miterlimit="10" d="
			M690.5,312.5c-0.2,6.5-0.3,13-0.5,19.5"/>
		<path fill="none" stroke="#F3DFC1" stroke-width="2" stroke-linecap="round" stroke-linejoin="round" stroke-miterlimit="10" d="
			M741.5,649c-3.3-1.2-6.6-2.3-9.5-3.3c-0.9,0.5-1.2,0.7-1.5,0.8c-6.5,2.1-7.5,6.9-7.1,13c0.4,6-0.2,12-0.4,18"/>
		<path fill="none" stroke="#F3DFC1" stroke-width="2" stroke-linecap="round" stroke-linejoin="round" stroke-miterlimit="10" d="
			M445.5,295c4.8,0.5,9.7,0.8,14.5,1.5c10.9,1.7,21.7,3.6,32.5,5.5c0.9,0.1,1.7,0.6,2.5,1"/>
		<path fill="none" stroke="#F3DFC1" stroke-width="2" stroke-linecap="round" stroke-linejoin="round" stroke-miterlimit="10" d="
			M673,851c5.3,1.7,10.7,3.3,16,5"/>
		<path fill="none" stroke="#F3DFC1" stroke-width="2" stroke-linecap="round" stroke-linejoin="round" stroke-miterlimit="10" d="
			M589.5,497c-4.9-2.1-9.8-3.1-14.5,0.5"/>
		<path fill="none" stroke="#F3DFC1" stroke-width="2" stroke-linecap="round" stroke-linejoin="round" stroke-miterlimit="10" d="
			M484,656.5c-4.7,2.3-9.3,4.7-14,7"/>
		<path fill="none" stroke="#F3DFC1" stroke-width="2" stroke-linecap="round" stroke-linejoin="round" stroke-miterlimit="10" d="
			M736,654c0.3,4.5,0.7,9,1,13.5"/>
		<path fill="none" stroke="#F3DFC1" stroke-width="2" stroke-linecap="round" stroke-linejoin="round" stroke-miterlimit="10" d="
			M306.5,249.5c-3.1-1.1-6.1-2.1-9.9-3.4c0.5,9.1,1,16.8,1.4,24.4"/>
		<path fill="none" stroke="#F3DFC1" stroke-width="2" stroke-linecap="round" stroke-linejoin="round" stroke-miterlimit="10" d="
			M684.5,859c0,5.2,0,10.3,0,15.5"/>
		<path fill="none" stroke="#F3DFC1" stroke-width="2" stroke-linecap="round" stroke-linejoin="round" stroke-miterlimit="10" d="
			M339,737.5c-3.3,1.3-6.7,2.7-10,4"/>
		<path fill="none" stroke="#F3DFC1" stroke-width="2" stroke-linecap="round" stroke-linejoin="round" stroke-miterlimit="10" d="
			M460.5,683.5c3.3,1,6.7,2,10,3"/>
		<path fill="none" stroke="#F3DFC1" stroke-width="2" stroke-linecap="round" stroke-linejoin="round" stroke-miterlimit="10" d="
			M340,753c-3.3,1.5-6.7,3-10,4.5"/>
		<path fill="none" stroke="#F3DFC1" stroke-width="2" stroke-linecap="round" stroke-linejoin="round" stroke-miterlimit="10" d="
			M492,795.5c3.2,1.2,6.3,2.3,9.5,3.5"/>
		<path fill="none" stroke="#F3DFC1" stroke-width="2" stroke-linecap="round" stroke-linejoin="round" stroke-miterlimit="10" d="
			M930.5,226c1.2,0.2,2.4,0.5,3.7,0.7c0,0.6,0,1.1-0.1,1.7c-1.7,0.2-3.3,0.4-5,0.6c-0.1-0.4-0.2-0.8-0.3-1.2
			c0.4-0.5,0.8-0.9,1.1-1.4"/>
		<path fill="none" stroke="#F3DFC1" stroke-width="2" stroke-linecap="round" stroke-linejoin="round" stroke-miterlimit="10" d="
			M356,1020c-3,1.8-6,3.7-9,5.5"/>
		<path fill="none" stroke="#F3DFC1" stroke-width="2" stroke-linecap="round" stroke-linejoin="round" stroke-miterlimit="10" d="
			M576,611.5c2-1.1,3.9-2.2,6.1-3.4c3.1,1,6.3,1.9,9.4,2.9"/>
		<path fill="none" stroke="#F3DFC1" stroke-width="2" stroke-linecap="round" stroke-linejoin="round" stroke-miterlimit="10" d="
			M462,667c5.5-4.2,11-2.6,16.5,0"/>
		<path fill="none" stroke="#F3DFC1" stroke-width="2" stroke-linecap="round" stroke-linejoin="round" stroke-miterlimit="10" d="
			M310.5,249.5c-3.3,0.7-6.7,1.3-10,2c-0.8,0.2-1.7,0.3-2.5,0.5"/>
		<path fill="none" stroke="#F3DFC1" stroke-width="2" stroke-linecap="round" stroke-linejoin="round" stroke-miterlimit="10" d="
			M478.5,668c-2.3,1.3-4.7,2.7-7,4"/>
		<path fill="none" stroke="#F3DFC1" stroke-width="2" stroke-linecap="round" stroke-linejoin="round" stroke-miterlimit="10" d="
			M489,678c-2.2,1.2-4.3,2.3-6.5,3.5"/>
		<path fill="none" stroke="#F3DFC1" stroke-width="2" stroke-linecap="round" stroke-linejoin="round" stroke-miterlimit="10" d="
			M814,769c-1.8,1.3-3.7,2.7-5.5,4"/>
		<path fill="none" stroke="#F3DFC1" stroke-width="2" stroke-linecap="round" stroke-linejoin="round" stroke-miterlimit="10" d="
			M678,846c-1.3,1-2.7,2-4,3"/>
		<path fill="none" stroke="#F3DFC1" stroke-width="2" stroke-linecap="round" stroke-linejoin="round" stroke-miterlimit="10" d="
			M591,613c-1.3,0.8-2.7,1.7-4,2.5"/>
		<path fill="none" stroke="#F3DFC1" stroke-width="2" stroke-linecap="round" stroke-linejoin="round" stroke-miterlimit="10" d="
			M938.5,230c-1.3-0.3-2.7-0.7-4-1"/>
		<path fill="none" stroke="#F3DFC1" stroke-width="2" stroke-linecap="round" stroke-linejoin="round" stroke-miterlimit="10" d="
			M740,668c-1.3,0-2.7,3.8-4,0"/>
		<path fill="none" stroke="#F3DFC1" stroke-width="2" stroke-linecap="round" stroke-linejoin="round" stroke-miterlimit="10" d="
			M696,709.5c-0.8,0-1.7,0-2.5,0"/>
		<path fill="none" stroke="#F3DFC1" stroke-width="2" stroke-linecap="round" stroke-linejoin="round" stroke-miterlimit="10" d="
			M694,711c-0.7,0-1.3,0-2,0c0-0.2,0-0.3,0-0.5c2-0.5,4.1-1,6.1-1.5c0-0.3-0.1-0.7-0.1-1c-0.7,0-1.3,0-2,0"/>
		<path fill="none" stroke="#F3DFC1" stroke-width="2" stroke-linecap="round" stroke-linejoin="round" stroke-miterlimit="10" d="
			M739,666.5c-0.7,0.3-1.3,0.7-2,1"/>
		<path fill="none" stroke="#F3DFC1" stroke-width="2" stroke-linecap="round" stroke-linejoin="round" stroke-miterlimit="10" d="
			M691.5,854c0.7,0,1.3,0,2,0c-0.1-0.4-0.1-0.7-0.2-1.1c-0.8,0.2-1.6,0.4-2.4,0.6"/>
		<path fill="none" stroke="#F3DFC1" stroke-width="2" stroke-linecap="round" stroke-linejoin="round" stroke-miterlimit="10" d="
			M741,665.5c-0.5,0.3-1,0.6-1.6,0.9c0.3,0.3,0.5,0.7,0.8,1c0.6-0.5,1.2-0.9,1.8-1.4"/>
	</g>
</g>
</svg>
