<?xml version="1.0" encoding="utf-8"?>
<!-- Generator: Adobe Illustrator 18.0.0, SVG Export Plug-In . SVG Version: 6.00 Build 0)  -->
<!DOCTYPE svg PUBLIC "-//W3C//DTD SVG 1.1 Tiny//EN" "http://www.w3.org/Graphics/SVG/1.1/DTD/svg11-tiny.dtd">
<svg version="1.1" baseProfile="tiny" id="Layer_1" xmlns="http://www.w3.org/2000/svg" xmlns:xlink="http://www.w3.org/1999/xlink"
	 x="0px" y="0px" viewBox="91.2 172.1 462.5 447" xml:space="preserve">
<g>
	<g>
		<path fill="none" stroke="#F3DFC1" stroke-width="1" stroke-linecap="round" stroke-linejoin="round" stroke-miterlimit="10" d="
			M551.9,327.4c-10.7-5.2-21.5-10.4-32.3-15.6c-14.7-7-29.3-13.9-44-20.9c-10.1-4.8-20.2-9.8-30.3-14.6c-14.6-7-29.3-13.9-44-20.9
			c-10.3-5-20.6-10-31-15c-14.6-7-29.3-13.9-44-20.9c-10.1-4.8-20.2-9.8-30.3-14.6c-14.6-7-29.2-13.9-43.8-20.9
			c-7.4-3.6-14.9-7.1-22.4-10.6"/>
		<path fill="none" stroke="#F3DFC1" stroke-width="1" stroke-linecap="round" stroke-linejoin="round" stroke-miterlimit="10" d="
			M226.8,180.4c2.4-0.6,4.8-1.2,7.2-1.6c0.9-0.1,1.9,0.1,2.7,0.5c14.1,6.7,28.1,13.5,42.2,20.3c11.1,5.4,22.3,10.7,33.4,16.1
			c11.8,5.8,23.7,11.5,35.6,17.2c11.1,5.4,22.3,10.7,33.4,16.1c11.8,5.8,23.7,11.5,35.6,17.2c11.1,5.4,22.3,10.7,33.4,16.1
			c13.6,6.6,27.2,13.2,40.9,19.8c11.4,5.5,22.7,11,34.1,16.5c4.7,2.2,9.3,4.5,13.9,6.8"/>
		<path fill="none" stroke="#F3DFC1" stroke-width="1" stroke-linecap="round" stroke-linejoin="round" stroke-miterlimit="10" d="
			M368,403.9c-0.1,3.6-0.2,7.1-0.4,10.6c-0.3,4.3-0.6,8.5-0.9,12.8c-0.4,6.1-0.9,12.2-1.3,18.3c-0.3,4.3-0.5,8.7-0.7,13
			c-0.3,5.1-0.7,10.3-1.1,15.4c-0.3,4-0.5,8.1-0.7,12.1c-0.4,5.4-0.7,10.9-1.1,16.3c-0.3,4.1-0.5,8.2-0.7,12.3
			c-0.3,5.3-0.7,10.6-1.1,16c-0.3,5.1-0.6,10.2-0.9,15.2c-0.4,6.3-0.9,12.7-1.3,19.1c-0.3,5.1-0.6,10.3-0.9,15.4
			c-0.4,6.1-0.9,12.1-1.3,18.2c-0.2,3.6-0.4,7.1-0.5,10.1c3.3,3.3,6.3,6.3,9.4,9.4c3.3-2,6.8-4.1,10.5-6.3c0.6-6.4,1.1-13,1.7-19.5
			c0.7-7.4,1.4-14.8,2-22.2c0.8-9.1,1.4-18.2,2.2-27.3c0.6-6.5,1.2-12.9,1.8-19.4c0.7-7.5,1.2-15,1.9-22.6c0.4-5.1,1-10.3,1.4-15.4
			c0.4-4.8,0.7-9.6,1.1-14.5c0.4-4.9,0.8-9.8,1.3-14.7c0.4-4.8,0.9-9.6,1.3-14.5c0.3-3.7,0.6-7.4,0.9-11.2c0.4-4.8,0.8-9.5,1.3-14.3
			c0-0.6,0.1-1.1,0.2-1.7"/>
		<path fill="none" stroke="#F3DFC1" stroke-width="1" stroke-linecap="round" stroke-linejoin="round" stroke-miterlimit="10" d="
			M368.9,398c3.1,2.1,6.2,4.1,9.4,6.2c0.6,0.4,1.2,0.9,1.8,1.3c-0.3,3.6-0.6,7.2-0.8,10.8c-0.6,7.2-1.1,14.3-1.7,21.5
			c-0.6,8.6-1.2,17.2-1.8,25.9c-0.6,7.5-1.2,15-1.8,22.6c-0.6,7.8-1.1,15.5-1.7,23.3c-0.6,8.5-1.4,17-2,25.5
			c-0.6,7.8-1.1,15.7-1.7,23.5c-0.6,8.4-1.4,16.9-2,25.3c-0.7,8.7-1.2,17.3-1.8,26c-0.2,2.7-0.5,5.4-0.7,8.1"/>
		<path fill="none" stroke="#F3DFC1" stroke-width="1" stroke-linecap="round" stroke-linejoin="round" stroke-miterlimit="10" d="
			M551.7,332.4c-0.7,3.4-1.3,6.7-2,10.1c-1.8,8.4-3.5,16.8-5.3,25.1c-1.5,7.2-3.2,14.3-4.7,21.5c-1.2,5.4-2.2,10.7-3.3,16.1
			c-1.2,5.5-2.5,11-3.6,16.5c-1.1,5.4-2.2,10.7-3.3,16.1c-1.8,8.3-3.6,16.5-5.3,24.8c-1.4,6.8-2.8,13.7-4.3,20.5
			c-1.3,5.9-2.7,11.8-4,17.8c-1.4,6.6-2.7,13.2-4.1,19.8c-0.7,3.5-1.5,7-2.3,10.7c-2.8,1.6-5.8,3.3-8.7,5c-3.4-2.6-6.5-4.9-9.5-7.2
			c0.8-4.3,1.7-8.6,2.5-12.9c1.4-7.1,2.7-14.2,4-21.3c1.3-6.7,2.7-13.5,4-20.2c1.6-8,3.2-15.9,4.8-23.8c2.2-11.4,4.4-22.7,6.6-34.1
			c1.6-8.1,3.2-16.1,4.8-24.2c1.8-9.4,3.7-18.8,5.5-28.2c0.6-2.8,1-5.6,1.5-8.4"/>
		<path fill="none" stroke="#F3DFC1" stroke-width="1" stroke-linecap="round" stroke-linejoin="round" stroke-miterlimit="10" d="
			M541.8,336.6c-0.6,2.9-1.1,5.8-1.7,8.6c-1.9,9.2-3.8,18.4-5.7,27.7c-1.8,8.7-3.7,17.3-5.5,26c-1.5,7.5-2.9,15-4.4,22.6
			c-1.4,6.7-2.8,13.5-4.2,20.2c-2,9.9-4,19.8-6.1,29.7c-1.4,6.7-2.8,13.3-4.2,20c-2.1,9.9-4,19.8-6.1,29.7c-1,4.9-2.1,9.8-3.1,14.7"
			/>
		<path fill="none" stroke="#F3DFC1" stroke-width="1" stroke-linecap="round" stroke-linejoin="round" stroke-miterlimit="10" d="
			M225.1,181.5c0.2,2.5,0.4,5,0.6,7.5c0.1,2.8,0.2,5.5,0.4,8.3c0.2,4,0.5,8.1,0.7,12.1c0,0.3,0.1,0.5,0.3,1
			c3.9,2.1,7.8,4.3,11.8,6.5C250,222.9,261,229,272.1,235c15.1,8.3,30.3,16.5,45.5,24.8c17.5,9.5,34.9,19.1,52.4,28.6
			c8.8,4.8,17.6,9.6,26.4,14.5"/>
		<path fill="none" stroke="#F3DFC1" stroke-width="1" stroke-linecap="round" stroke-linejoin="round" stroke-miterlimit="10" d="
			M222.2,178c1.4,0.8,2.9,1.6,4.4,2.5c0.6,9.8,1.2,19.6,1.9,29.4c1.9-0.4,3.4-0.8,5.1-1.2c6.5,3.4,13.1,6.9,19.7,10.4
			c10.5,5.6,21,11.4,31.5,17.1c13.7,7.4,27.4,14.8,41.1,22.2c17.2,9.2,34.4,18.3,51.5,27.5c8.9,4.7,17.7,9.5,26.6,14.3
			c0.2,0.1,0.4,0.4,0.6,0.6"/>
		<path fill="none" stroke="#F3DFC1" stroke-width="1" stroke-linecap="round" stroke-linejoin="round" stroke-miterlimit="10" d="
			M225.9,212.1c7.4,4.1,14.9,8.2,22.4,12.3c14.3,7.9,28.6,15.8,42.9,23.7c15.1,8.3,30.3,16.6,45.5,24.9c11.5,6.3,23,12.7,34.5,19.1
			c7.9,4.4,15.9,8.7,23.8,13"/>
		<path fill="none" stroke="#F3DFC1" stroke-width="1" stroke-linecap="round" stroke-linejoin="round" stroke-miterlimit="10" d="
			M225.9,210.8c8.6,4.7,17.2,9.4,25.9,14.1c13.3,7.3,26.6,14.7,40,22c9.6,5.3,19.3,10.5,29,15.8c13.3,7.3,26.6,14.7,40,22
			c9.6,5.3,19.3,10.5,29,15.8c1.9,1,3.8,2.1,5.7,3.1"/>
		<path fill="none" stroke="#F3DFC1" stroke-width="1" stroke-linecap="round" stroke-linejoin="round" stroke-miterlimit="10" d="
			M227.7,220.4c10,5.6,19.9,11.1,29.9,16.7c7.1,4,14.2,8.1,21.3,12.1c9.5,5.3,19,10.5,28.4,15.8c10.5,5.8,20.9,11.7,31.4,17.6
			c17.1,9.6,34.2,19.3,51.3,29c1.3,0.7,2.6,1.5,3.9,2.2"/>
		<path fill="none" stroke="#F3DFC1" stroke-width="1" stroke-linecap="round" stroke-linejoin="round" stroke-miterlimit="10" d="
			M345.4,321c-4.9-2.9-9.8-5.8-14.7-8.8c-13.1-8-26.2-16-39.2-24c-12.6-7.7-25.2-15.5-37.8-23.3c-11.3-6.9-22.7-13.8-34.1-20.7
			c-11-6.7-22-13.6-33-20.4c-0.3-0.2-0.7-0.4-1.1-0.6"/>
		<path fill="none" stroke="#F3DFC1" stroke-width="1" stroke-linecap="round" stroke-linejoin="round" stroke-miterlimit="10" d="
			M192.7,221.5c12.6,7.6,25.2,15.2,37.8,22.7c17.5,10.5,35,20.9,52.4,31.4c13.5,8.1,26.9,16.3,40.3,24.4
			c9.6,5.8,19.2,11.5,28.8,17.2"/>
		<path fill="none" stroke="#F3DFC1" stroke-width="1" stroke-linecap="round" stroke-linejoin="round" stroke-miterlimit="10" d="
			M344.9,331.5c-2.7-1.6-5.4-3.1-8.1-4.8c-13-8.2-26-16.4-39.1-24.6c-11.7-7.3-23.4-14.7-35-22c-13.8-8.6-27.5-17.2-41.3-25.9
			c-10.5-6.6-21-13.2-31.5-19.8c-1.2-0.8-2.5-1.6-3.7-2.4"/>
		<path fill="none" stroke="#F3DFC1" stroke-width="1" stroke-linecap="round" stroke-linejoin="round" stroke-miterlimit="10" d="
			M94.4,215.6c0.4,3,0.8,6,1.3,9c0.9,6.3,1.8,12.6,2.8,18.9c1,6.8,2.1,13.6,3.1,20.4c1,6.9,2.1,13.7,3.1,20.5c1,6.1,2,12.1,2.9,18.2
			c0.9,5.9,1.7,11.7,2.6,17.6c0.8,5.2,1.6,10.4,2.4,15.6c1,6.3,1.8,12.6,2.8,18.9c0.6,4.1,1.2,8.2,1.8,12.3c0.3,2.1,2.9,5.1,5,5.9
			c2.7-0.9,5.4-1.8,8.1-2.7c-1-6.8-1.8-13.4-2.8-20c-0.8-5.5-1.6-11-2.4-16.5c-1.1-7.5-2.1-15-3.1-22.6c-1-7.4-2.1-14.8-3.1-22.2
			c-1-7.3-2.1-14.7-3.1-22c-0.8-5.5-1.6-11-2.4-16.5c-1.1-7.4-2.1-14.9-3.1-22.4c-0.4-2.9-0.8-5.8-1.3-8.6"/>
		<path fill="none" stroke="#F3DFC1" stroke-width="1" stroke-linecap="round" stroke-linejoin="round" stroke-miterlimit="10" d="
			M227.5,221.8c0,0.1,0,0.2,0,0.2c5.4,1.8,9.9,5.1,14.8,7.8c11.1,6.1,22.1,12.4,33.2,18.7c14.7,8.3,29.3,16.6,44,24.9
			c13.7,7.7,27.4,15.4,41.1,23.1c10.9,6.2,21.7,12.5,32.7,18.6c1.3,0.7,3,0.8,4.5,1.1c6,1.2,12,2.5,18,3.7c6.9,1.4,13.8,2.6,20.7,4
			c10.7,2.2,21.4,4.4,32.1,6.6c13,2.6,26,5.1,39.1,7.7c0.3,0.1,0.6,0.4,0.9,0.6"/>
		<path fill="none" stroke="#F3DFC1" stroke-width="1" stroke-linecap="round" stroke-linejoin="round" stroke-miterlimit="10" d="
			M97,208.3c0.7,4.8,1.5,9.5,2.2,14.3c0.8,5.4,1.6,10.9,2.4,16.3c1.3,8.7,2.6,17.5,3.9,26.2c0.9,6.1,1.8,12.1,2.8,18.2
			c0.9,6.2,1.8,12.5,2.8,18.7c1,6.2,2,12.4,2.9,18.5c0.8,5.1,1.5,10.2,2.2,15.2c0.7,5.2,1.4,10.5,2.2,15.8c1,6.9,2.1,13.8,3.1,20.7"
			/>
		<path fill="none" stroke="#F3DFC1" stroke-width="1" stroke-linecap="round" stroke-linejoin="round" stroke-miterlimit="10" d="
			M397.5,303.4c0.4,1.6,1.9,1.6,3.1,1.8c13,2.6,26,5.2,39.1,7.7c10.3,2,20.6,3.9,31,5.9c5.9,1.1,11.7,2.5,17.6,3.6
			c5.8,1.1,11.6,2.2,17.4,3.3c7.4,1.4,14.9,3,22.4,4.3c1.8,0.3,3.5,0.7,5.1,1.5c1.6,0.8,3.2,1.7,4.7,2.5c4.9-2.1,9.7-4.2,14.8-6.3
			c-0.3,1.4-0.5,2.8-0.7,4c-57.3,24.6-114.5,49.2-171.9,73.8c0.1-1.5,0.1-2.9,0.2-4.2"/>
		<path fill="none" stroke="#F3DFC1" stroke-width="1" stroke-linecap="round" stroke-linejoin="round" stroke-miterlimit="10" d="
			M537.6,334.2c-4.8,2.1-9.5,4.2-14.3,6.2c-11.7,5-23.4,9.9-35,14.9c-11.9,5.1-23.8,10.2-35.8,15.2c-8.5,3.6-17,7.2-25.5,10.8
			c-11.9,5.1-23.8,10.2-35.8,15.2c-3.7,1.5-7.3,3.1-11,4.7c-3.3-2.3-6.5-4.6-9.8-6.9c-0.8-0.6-1.5-1.2-2.2-1.8"/>
		<path fill="none" stroke="#F3DFC1" stroke-width="1" stroke-linecap="round" stroke-linejoin="round" stroke-miterlimit="10" d="
			M229.9,175.8c-0.1-0.8-0.1-1.6-0.2-2.7c-45.9,9.5-91.7,19-137.5,28.5c0.7,4.8,1.4,9.1,2,13.5c0.4,0.3,0.7,0.6,1.1,0.8
			c1.8,1.3,3.4,2.2,5.9,1.8c2.4-0.3,5,0.7,7.5,1.1c0.7,0.1,1.5,0.4,2.2,0.3c3.3,0,5.6,2.2,8.1,3.9c21.4,14.9,42.8,29.8,64.2,44.7
			c14.5,10.2,29,20.4,43.5,30.6c0.4,0.3,0.7,0.5,1.1,0.7"/>
		<path fill="none" stroke="#F3DFC1" stroke-width="1" stroke-linecap="round" stroke-linejoin="round" stroke-miterlimit="10" d="
			M538.8,349.6c-5.1,2.2-10.2,4.4-15.2,6.6c-11.5,5-23,10-34.5,15c-13.9,6.1-27.7,12.4-41.6,18.5c-9.7,4.3-19.4,8.4-29.2,12.7
			c-8.7,3.8-17.3,7.7-26,11.6"/>
		<path fill="none" stroke="#F3DFC1" stroke-width="1" stroke-linecap="round" stroke-linejoin="round" stroke-miterlimit="10" d="
			M396.6,305.2c-0.1-0.5-0.3-1-0.4-1.6c2.6-0.9,5.3-1.8,7.8-2.7c3.6,0.7,7.1,1.4,10.6,2.1c5.2,1,10.5,2.1,15.8,3.1
			c7.3,1.4,14.7,2.8,22,4.2c8.5,1.7,17.1,3.3,25.7,5c7.2,1.4,14.4,2.8,21.6,4.2c5.2,1,10.5,2.1,15.8,3.1c6.7,1.3,13.5,2.6,20.2,3.9
			c0.4,0.1,0.8,0.4,1.3,0.6"/>
		<path fill="none" stroke="#F3DFC1" stroke-width="1" stroke-linecap="round" stroke-linejoin="round" stroke-miterlimit="10" d="
			M528.8,330.5c-1.5,1.4-3,0.2-4.4-0.1c-10.6-1.9-21.2-4.1-31.7-6.2c-12.1-2.4-24.1-4.9-36.1-7.3c-8.7-1.8-17.5-3.4-26.2-5.1
			c-7.3-1.4-14.7-2.8-22-4.2c-4.3-0.8-8.5-1.7-12.8-2.6"/>
		<path fill="none" stroke="#F3DFC1" stroke-width="1" stroke-linecap="round" stroke-linejoin="round" stroke-miterlimit="10" d="
			M394.9,306.7c4.1,0.8,8.2,1.6,12.3,2.4c7.8,1.5,15.7,3,23.5,4.6c5.3,1.1,10.6,2.2,16,3.3c5.3,1,10.6,1.9,16,3
			c4.5,0.9,9.1,1.8,13.6,2.8c4,0.8,8,1.6,11.9,2.4c4.8,1,9.5,2,14.3,2.9c5.3,1,10.6,1.9,16,2.9c1.5,0.3,3,0.6,4.4,0.9
			c1.5,0.4,2.9,0.4,4.2-0.6"/>
		<path fill="none" stroke="#F3DFC1" stroke-width="1" stroke-linecap="round" stroke-linejoin="round" stroke-miterlimit="10" d="
			M234.3,334.9c-0.4-7.3-0.8-14.7-1.1-22c-0.1-3.2,0-6.5,0-10c43.6,30.5,87.2,61,130.9,91.6"/>
		<path fill="none" stroke="#F3DFC1" stroke-width="1" stroke-linecap="round" stroke-linejoin="round" stroke-miterlimit="10" d="
			M524.4,332.4c-4.8,2.1-9.5,4.2-14.3,6.2c-4.9,2.1-9.9,4-14.9,6.1c-9.6,4-19.2,7.9-28.8,11.9c-7.8,3.3-15.7,6.6-23.5,9.9
			c-10.7,4.5-21.5,9-32.3,13.6c-9.5,4-19.1,8.1-28.6,12.1"/>
		<path fill="none" stroke="#F3DFC1" stroke-width="1" stroke-linecap="round" stroke-linejoin="round" stroke-miterlimit="10" d="
			M238.9,266.9c0.4,7.8,0.7,15.7,1.1,23.5c0.1,3.6,0.3,7.2,0.4,10.8c0,1.1,0.1,2.2,0.3,3.2c9.2,6.4,18.3,12.7,27.4,19
			c13.3,9.2,26.7,18.4,40,27.7c13.4,9.3,26.8,18.6,40.2,27.9c4.5,3.2,9.2,6.2,13.8,9.4"/>
		<path fill="none" stroke="#F3DFC1" stroke-width="1" stroke-linecap="round" stroke-linejoin="round" stroke-miterlimit="10" d="
			M234.7,178.6c-1.5-0.8-3-1.7-4.6-2.6c-9.4,2-18.8,3.9-28.2,5.9c-9.6,2-19.2,4-28.8,6.1c-9,1.9-18,3.8-27,5.7
			c-6.8,1.4-13.6,2.8-20.4,4.2c-7.5,1.6-15,3.3-22.6,5c-2.2,0.5-4.5,0.9-6.8,1.3"/>
		<path fill="none" stroke="#F3DFC1" stroke-width="1" stroke-linecap="round" stroke-linejoin="round" stroke-miterlimit="10" d="
			M194.7,221.5c10,5.9,19.9,11.7,29.9,17.6c9.4,5.6,18.7,11.4,28.1,17c15.9,9.6,31.9,19.1,47.9,28.6c15.2,9.1,30.4,18.3,45.7,27.5
			c2.6,1.5,5.1,3,7.7,4.6"/>
		<path fill="none" stroke="#F3DFC1" stroke-width="1" stroke-linecap="round" stroke-linejoin="round" stroke-miterlimit="10" d="
			M225.7,180.4c-7.4,1.6-14.8,3.2-22.2,4.8c-7.2,1.5-14.4,3-21.6,4.6c-8.9,1.9-17.9,3.8-26.8,5.7c-9.5,2-19.1,4-28.6,6.1
			c-6.4,1.4-12.8,2.8-19.3,4.2c-2.3,0.5-4.5,0.8-7.2,1.4c-2.2-1.5-4.7-3.3-7.3-5"/>
		<path fill="none" stroke="#F3DFC1" stroke-width="1" stroke-linecap="round" stroke-linejoin="round" stroke-miterlimit="10" d="
			M395.8,304.1c-1.5,1-1.2,2.8-1.4,4.2c-0.3,2.8-0.4,5.5-0.6,8.5c2.4,0.5,4.9,1.1,7.3,1.6c7.5,1.5,15,3.1,22.6,4.6
			c5.9,1.2,11.9,2.3,17.8,3.5c7.5,1.5,14.9,3.2,22.4,4.7c6.8,1.4,13.7,2.7,20.5,4s13.7,2.7,20.5,4c0.4,0.1,0.7,0.4,1.1,0.6"/>
		<path fill="none" stroke="#F3DFC1" stroke-width="1" stroke-linecap="round" stroke-linejoin="round" stroke-miterlimit="10" d="
			M240.4,304c-2.1-1.4-4.3-2.8-6.4-4.2c-7.7-5.2-15.3-10.5-22.9-15.8c-16.5-11.4-32.9-22.9-49.3-34.3c-13.4-9.3-26.9-18.6-40.3-27.9
			"/>
		<path fill="none" stroke="#F3DFC1" stroke-width="1" stroke-linecap="round" stroke-linejoin="round" stroke-miterlimit="10" d="
			M230.8,261.8c2.1,1.2,4.3,2.4,6.4,3.7c15,9.5,30,19,44.9,28.4c14,8.8,28,17.6,42,26.4c7.1,4.5,14.2,8.9,21.3,13.4"/>
		<path fill="none" stroke="#F3DFC1" stroke-width="1" stroke-linecap="round" stroke-linejoin="round" stroke-miterlimit="10" d="
			M118.8,220c1.3,1.6,3.3,1.3,5,1.6c8,1.6,16.1,3,24.2,4.4c6.8,1.2,13.6,2.5,20.4,3.7c5,0.9,9.9,1.7,14.9,2.6
			c1.1,0.2,2.2,0.6,3.1,1.1c8.8,5.5,17.5,11,26.2,16.5c4.4,2.8,8.7,5.5,13,8.3"/>
		<path fill="none" stroke="#F3DFC1" stroke-width="1" stroke-linecap="round" stroke-linejoin="round" stroke-miterlimit="10" d="
			M189.4,219.3c-0.4-0.1-0.8-0.1-1.6-0.2c0.4,0.6,0.6,0.9,0.8,1.2c-1.9,0.5-3.9,1.1-6.5,1.8c-5.9-1-12.7-2.2-19.4-3.3
			c-5.2-0.9-10.4-1.8-15.6-2.8c-5.3-0.9-10.6-1.8-16-2.8c-4.5-0.8-8.9-1.6-13.4-2.4c-5.3-0.9-10.6-1.7-16-2.6
			c-0.4-0.1-0.7-0.5-1.1-0.7"/>
		<path fill="none" stroke="#F3DFC1" stroke-width="1" stroke-linecap="round" stroke-linejoin="round" stroke-miterlimit="10" d="
			M225.3,190.3c-7.8,1.7-15.5,3.4-23.3,5.1c-8.2,1.8-16.4,3.5-24.6,5.3c-8,1.8-15.9,3.6-23.8,5.3c-5.4,1.2-10.9,2.3-16.3,3.5
			c-0.3,0.1-0.5,0.4-0.7,0.6"/>
		<path fill="none" stroke="#F3DFC1" stroke-width="1" stroke-linecap="round" stroke-linejoin="round" stroke-miterlimit="10" d="
			M356.1,320.1c4.3,12.5,8.7,25,13,37.6c2.1,6,4.1,12,6.2,18c1.9,5.5,3.8,11,5.7,16.5"/>
		<path fill="none" stroke="#F3DFC1" stroke-width="1" stroke-linecap="round" stroke-linejoin="round" stroke-miterlimit="10" d="
			M357.9,319.5c2.9,8.2,5.8,16.4,8.6,24.6c3.9,11.1,7.8,22.3,11.7,33.4c1.7,4.7,3.3,9.3,5,13.9"/>
		<path fill="none" stroke="#F3DFC1" stroke-width="1" stroke-linecap="round" stroke-linejoin="round" stroke-miterlimit="10" d="
			M190.5,229c-2.3,0.6-4.7,1.1-8,1.9c-8-1.5-17.1-3.2-26.1-4.8c-8.1-1.5-16.2-3-24.4-4.4c-4.5-0.8-9.1-1.3-13.6-2.1
			c-0.7-0.1-1.4-0.8-2-1.2c-2.8-1.9-5.5-3.8-8.3-5.7"/>
		<path fill="none" stroke="#F3DFC1" stroke-width="1" stroke-linecap="round" stroke-linejoin="round" stroke-miterlimit="10" d="
			M222.2,191.4c0.2,2.8,0.4,5.6,0.6,8.4c0.4,6.5,0.8,12.9,1.1,19.4c0.3,5.2,0.5,10.4,0.7,15.6c0.1,1.4,0.1,2.8,0.2,4.2"/>
		<path fill="none" stroke="#F3DFC1" stroke-width="1" stroke-linecap="round" stroke-linejoin="round" stroke-miterlimit="10" d="
			M232.5,302.5c-1.3-0.9-2.7-1.9-4-2.8c0,2.4-0.1,4.7,0,7c0.2,4.1,0.5,8.2,0.7,12.3c0.2,4,0.4,8,0.6,11.9c0,0.4,0.1,1,0.4,1.2
			c1.4,1.1,2.9,2.1,4.4,3.2"/>
		<path fill="none" stroke="#F3DFC1" stroke-width="1" stroke-linecap="round" stroke-linejoin="round" stroke-miterlimit="10" d="
			M227.9,295.2c-0.4-6.1-0.7-12.2-1.1-18.3c-0.2-3.9-0.4-7.7-0.6-11.6c-0.1-2.1-0.2-4.3-0.4-6.9c1.7,1,3.2,1.9,4.8,2.9
			c0.2,3.2,0.4,6.4,0.6,9.6c0.4,7.1,0.8,14.2,1.1,21.3c0.1,2,0,4,0,6.1"/>
		<path fill="none" stroke="#F3DFC1" stroke-width="1" stroke-linecap="round" stroke-linejoin="round" stroke-miterlimit="10" d="
			M240.7,308.7c0.4,8.1,0.7,16.2,1.1,24.6c-2.5,0.7-4.9,1.3-7.3,2"/>
		<path fill="none" stroke="#F3DFC1" stroke-width="1" stroke-linecap="round" stroke-linejoin="round" stroke-miterlimit="10" d="
			M234.5,188.5c0,0.6,0,1.2,0,1.9c0.4-0.2,0.6-0.3,1.1-0.5c0,2.3-0.1,4.4,0,6.5c0.2,4.1,0.5,8.3,0.7,12.5c0,0.4-0.1,0.7-0.2,1.1"/>
		<path fill="none" stroke="#F3DFC1" stroke-width="1" stroke-linecap="round" stroke-linejoin="round" stroke-miterlimit="10" d="
			M237.1,227.3c0.1,1.7,0.3,3.3,0.4,5c0.2,4.5,0.4,8.9,0.6,13.4c0,0.4-0.1,0.8-0.2,1.3"/>
		<path fill="none" stroke="#F3DFC1" stroke-width="1" stroke-linecap="round" stroke-linejoin="round" stroke-miterlimit="10" d="
			M228.8,222.7c0.3,6.1,0.6,12.1,0.9,18.2c0,0.4-0.1,0.8-0.2,1.3"/>
		<path fill="none" stroke="#F3DFC1" stroke-width="1" stroke-linecap="round" stroke-linejoin="round" stroke-miterlimit="10" d="
			M393.1,400.2c-0.3,4.7-0.7,9.3-1,13.9c-3.8,1.7-7.6,3.4-11.5,5.2c-1.1,0.5-2.1,0.5-3.2-0.3c-3-2.3-6.2-4.5-9.3-6.8"/>
		<path fill="none" stroke="#F3DFC1" stroke-width="1" stroke-linecap="round" stroke-linejoin="round" stroke-miterlimit="10" d="
			M93.1,205.1c5.4,3.8,10.9,7.6,16.3,11.4c0.4,0.3,0.7,0.5,1.1,0.7"/>
		<path fill="none" stroke="#F3DFC1" stroke-width="1" stroke-linecap="round" stroke-linejoin="round" stroke-miterlimit="10" d="
			M101,216.1c3.2,0.6,6.5,1.2,9.7,1.9c0.8,0.2,1.6,0.9,2.4,1.4"/>
		<path fill="none" stroke="#F3DFC1" stroke-width="1" stroke-linecap="round" stroke-linejoin="round" stroke-miterlimit="10" d="
			M235,178.9c0.1,2.6,0.3,5.2,0.4,7.9c0,0.5-0.1,1-0.2,1.5"/>
		<path fill="none" stroke="#F3DFC1" stroke-width="1" stroke-linecap="round" stroke-linejoin="round" stroke-miterlimit="10" d="
			M233.8,179.1c0.2,2.7,0.4,5.4,0.6,8.1c0.1,1,1.6,1.5,1.1,2.8"/>
		<path fill="none" stroke="#F3DFC1" stroke-width="1" stroke-linecap="round" stroke-linejoin="round" stroke-miterlimit="10" d="
			M548.7,345.2c-3,1.3-6,2.6-9,3.9"/>
		<path fill="none" stroke="#F3DFC1" stroke-width="1" stroke-linecap="round" stroke-linejoin="round" stroke-miterlimit="10" d="
			M346.2,321.7c1.7,1.5,3.5,0.4,5.1,0c2.2-0.7,4.4-1.6,6.6-2.5c-0.3-0.6-0.6-1.3-0.7-1.6c-4.2,0-8.2,0-12.4,0
			c0.3,1.9,0.6,3.6,0.9,5.2"/>
		<path fill="none" stroke="#F3DFC1" stroke-width="1" stroke-linecap="round" stroke-linejoin="round" stroke-miterlimit="10" d="
			M396.4,307.3c-0.2,2.1-0.4,4.1-0.6,6.2c-0.1,0.7-0.2,1.4-0.4,2"/>
		<path fill="none" stroke="#F3DFC1" stroke-width="1" stroke-linecap="round" stroke-linejoin="round" stroke-miterlimit="10" d="
			M547.5,329.8c-2.6-1.3-5.2-2.6-7.7-3.9c-3.3,1.5-6.4,2.8-9.6,4.2"/>
		<path fill="none" stroke="#F3DFC1" stroke-width="1" stroke-linecap="round" stroke-linejoin="round" stroke-miterlimit="10" d="
			M389.1,397.1c-2.4-1.7-4.8-3.3-7.4-5.1c-2.9,1.3-5.7,2.7-8.6,4"/>
		<path fill="none" stroke="#F3DFC1" stroke-width="1" stroke-linecap="round" stroke-linejoin="round" stroke-miterlimit="10" d="
			M226.8,210.1c-1,0.3-1.4,0.8-1.3,1.8c0.1,2.6,0.3,5.2,0.4,7.9c0.1,1.2,0.8,1.2,1.5,1c0.1-0.1,0.1-0.3,0.3-0.5
			c-0.5-0.3-0.9-0.6-1.4-0.9"/>
		<path fill="none" stroke="#F3DFC1" stroke-width="1" stroke-linecap="round" stroke-linejoin="round" stroke-miterlimit="10" d="
			M227.2,213.2c0,2.2,0,4.4,0,6.6"/>
		<path fill="none" stroke="#F3DFC1" stroke-width="1" stroke-linecap="round" stroke-linejoin="round" stroke-miterlimit="10" d="
			M363.4,389.4c1.5,1.1,3.1,2.1,4.6,3.2c0.1-0.1,0.3-0.3,0.5-0.4c-0.4-0.7-0.7-1.5-1.1-2.2"/>
		<path fill="none" stroke="#F3DFC1" stroke-width="1" stroke-linecap="round" stroke-linejoin="round" stroke-miterlimit="10" d="
			M166.7,215.8c0.8,0.1,1.7,0.1,2.6,0.2c0.5,0.1,1,0.2,1.5,0.4"/>
		<path fill="none" stroke="#F3DFC1" stroke-width="1" stroke-linecap="round" stroke-linejoin="round" stroke-miterlimit="10" d="
			M134.9,210.1c0.4,0,1-0.2,1.2,0c1.1,1,2.3,1,3.7,0.6c0.3-0.1,0.7,0.3,1.1,0.5"/>
		<path fill="none" stroke="#F3DFC1" stroke-width="1" stroke-linecap="round" stroke-linejoin="round" stroke-miterlimit="10" d="
			M147.2,212.1c0.7,1.1,1.8,0.5,2.8,0.6c0.6,0,1.1,0.2,1.7,0.4"/>
		<path fill="none" stroke="#F3DFC1" stroke-width="1" stroke-linecap="round" stroke-linejoin="round" stroke-miterlimit="10" d="
			M176.9,217.2c0.7,1.1,1.8,0.5,2.8,0.6c0.6,0,1.1,0.1,1.7,0.2"/>
		<path fill="none" stroke="#F3DFC1" stroke-width="1" stroke-linecap="round" stroke-linejoin="round" stroke-miterlimit="10" d="
			M156,213.9c1.2,0.1,2.5,0.1,3.7,0.2"/>
		<path fill="none" stroke="#F3DFC1" stroke-width="1" stroke-linecap="round" stroke-linejoin="round" stroke-miterlimit="10" d="
			M234.7,190.5c0.1,1.2,0.3,2.5,0.4,3.7"/>
		<path fill="none" stroke="#F3DFC1" stroke-width="1" stroke-linecap="round" stroke-linejoin="round" stroke-miterlimit="10" d="
			M158.6,214.5c1.2,0.1,2.5,0.1,3.7,0.2"/>
		<path fill="none" stroke="#F3DFC1" stroke-width="1" stroke-linecap="round" stroke-linejoin="round" stroke-miterlimit="10" d="
			M183.5,222.2c1.6,0.3,3.2,0.6,4.8,0.9c1.8,0.3,2.7-1.2,4-1.8"/>
		<path fill="none" stroke="#F3DFC1" stroke-width="1" stroke-linecap="round" stroke-linejoin="round" stroke-miterlimit="10" d="
			M193.1,230.1c-2.7,2.8-5.7,1.9-8.8,0.9"/>
		<path fill="none" stroke="#F3DFC1" stroke-width="1" stroke-linecap="round" stroke-linejoin="round" stroke-miterlimit="10" d="
			M106.7,205.5c-1.1-0.8-2.2-1.6-3.3-2.4"/>
		<path fill="none" stroke="#F3DFC1" stroke-width="1" stroke-linecap="round" stroke-linejoin="round" stroke-miterlimit="10" d="
			M104.7,210.1c1,0.8,2,1.5,3.2,2.5c0-0.8,0-1.4,0-2.2c3.7,0.7,7.2,1.4,10.7,1.9c9.1,1.5,18.1,3,27.1,4.6c6.6,1.1,13.1,2.5,19.6,3.6
			c5.9,1.1,11.8,1.9,17.8,3c0.7,0.1,1.4,0.4,2,0.7c12.7,7.8,25.4,15.6,38.1,23.5c13.9,8.5,27.8,17.1,41.6,25.7
			c15.5,9.5,30.9,19.1,46.4,28.6c11.4,7,23,13.9,34.5,20.9"/>
		<path fill="none" stroke="#F3DFC1" stroke-width="1" stroke-linecap="round" stroke-linejoin="round" stroke-miterlimit="10" d="
			M347.1,328.3c-0.8,0.1-1.7,0.2-2.7,0.3c0.5,2,1,3.9,1.4,5.7c0.1,0.5,0.3,1,0.4,1.5"/>
		<path fill="none" stroke="#F3DFC1" stroke-width="1" stroke-linecap="round" stroke-linejoin="round" stroke-miterlimit="10" d="
			M102.3,208.6c1.5,1.5,3.6,1.1,5.3,1.8"/>
		<path fill="none" stroke="#F3DFC1" stroke-width="1" stroke-linecap="round" stroke-linejoin="round" stroke-miterlimit="10" d="
			M345.8,332.4c0.8,0,1.6,0,2.4,0"/>
		<path fill="none" stroke="#F3DFC1" stroke-width="1" stroke-linecap="round" stroke-linejoin="round" stroke-miterlimit="10" d="
			M185.7,219.1c0.7,0.1,1.5,0.3,2.2,0.4"/>
		<path fill="none" stroke="#F3DFC1" stroke-width="1" stroke-linecap="round" stroke-linejoin="round" stroke-miterlimit="10" d="
			M188.8,220c1.5-0.5,2.8-0.2,4,0.7"/>
		<path fill="none" stroke="#F3DFC1" stroke-width="1" stroke-linecap="round" stroke-linejoin="round" stroke-miterlimit="10" d="
			M365,395.4c-0.1-0.3-0.3-0.6-0.4-0.8c-0.1,0.1-0.3,0.1-0.4,0.2c0.1,0.3,0.3,0.7,0.4,1"/>
		<path fill="none" stroke="#F3DFC1" stroke-width="1" stroke-linecap="round" stroke-linejoin="round" stroke-miterlimit="10" d="
			M168.1,215.6c-1.2-0.1-2.5-0.1-3.7-0.2"/>
		<path fill="none" stroke="#F3DFC1" stroke-width="1" stroke-linecap="round" stroke-linejoin="round" stroke-miterlimit="10" d="
			M346,334.8c0.4,1.5,0.8,2.9,1.3,4.4"/>
		<path fill="none" stroke="#F3DFC1" stroke-width="1" stroke-linecap="round" stroke-linejoin="round" stroke-miterlimit="10" d="
			M164.5,215c-1.2-0.1-2.5-0.1-3.7-0.2"/>
		<path fill="none" stroke="#F3DFC1" stroke-width="1" stroke-linecap="round" stroke-linejoin="round" stroke-miterlimit="10" d="
			M176.6,217.4c-0.5-0.1-1.3,0-1.4-0.2c-0.5-1.2-1.3-0.7-2.1-0.5"/>
		<path fill="none" stroke="#F3DFC1" stroke-width="1" stroke-linecap="round" stroke-linejoin="round" stroke-miterlimit="10" d="
			M157.5,213.8c-0.4,0-0.7,0-1.1,0c-1.1,0.1-2.2,0.5-3-0.7c-0.1-0.2-0.7,0-1.1,0"/>
		<path fill="none" stroke="#F3DFC1" stroke-width="1" stroke-linecap="round" stroke-linejoin="round" stroke-miterlimit="10" d="
			M174.9,217.1c-0.8,0.1-1.6,0.7-2.1-0.5c-0.1-0.2-0.9-0.1-1.4-0.2"/>
		<path fill="none" stroke="#F3DFC1" stroke-width="1" stroke-linecap="round" stroke-linejoin="round" stroke-miterlimit="10" d="
			M166.7,215.4c-0.8-0.1-1.6-0.1-2.4-0.2c-0.7-0.1-1.4-0.1-2-0.2"/>
		<path fill="none" stroke="#F3DFC1" stroke-width="1" stroke-linecap="round" stroke-linejoin="round" stroke-miterlimit="10" d="
			M145.2,211.9c-0.8,0.1-1.6,0.7-2.1-0.5c-0.1-0.2-0.9-0.1-1.4-0.2"/>
		<path fill="none" stroke="#F3DFC1" stroke-width="1" stroke-linecap="round" stroke-linejoin="round" stroke-miterlimit="10" d="
			M146.9,212.3c-0.5-0.1-1.3,0-1.4-0.2c-0.5-1.2-1.3-0.7-2.1-0.5"/>
		<path fill="none" stroke="#F3DFC1" stroke-width="1" stroke-linecap="round" stroke-linejoin="round" stroke-miterlimit="10" d="
			M183.5,218.3c-1.2-0.1-2.5-0.1-3.7-0.2"/>
		<path fill="none" stroke="#F3DFC1" stroke-width="1" stroke-linecap="round" stroke-linejoin="round" stroke-miterlimit="10" d="
			M136.2,210.5c-0.5-0.1-1.3,0-1.4-0.2c-0.5-1.2-1.3-0.7-2.1-0.5"/>
		<path fill="none" stroke="#F3DFC1" stroke-width="1" stroke-linecap="round" stroke-linejoin="round" stroke-miterlimit="10" d="
			M134.6,210.1c-0.8,0.1-1.6,0.7-2.1-0.5c-0.1-0.2-0.9-0.1-1.4-0.2"/>
		<path fill="none" stroke="#F3DFC1" stroke-width="1" stroke-linecap="round" stroke-linejoin="round" stroke-miterlimit="10" d="
			M185.7,218.7c-0.8-0.1-1.6-0.1-2.4-0.2c-0.7-0.1-1.4-0.1-2-0.2"/>
		<path fill="none" stroke="#F3DFC1" stroke-width="1" stroke-linecap="round" stroke-linejoin="round" stroke-miterlimit="10" d="
			M187.2,218.9c-1.2-0.1-2.5-0.1-3.7-0.2"/>
		<path fill="none" stroke="#F3DFC1" stroke-width="1" stroke-linecap="round" stroke-linejoin="round" stroke-miterlimit="10" d="
			M156,213.6c-0.7-0.1-1.4-0.1-2-0.2"/>
		<path fill="none" stroke="#F3DFC1" stroke-width="1" stroke-linecap="round" stroke-linejoin="round" stroke-miterlimit="10" d="
			M130.4,209.4c-0.7-0.2-1.5-0.4-2.2-0.6"/>
		<path fill="none" stroke="#F3DFC1" stroke-width="1" stroke-linecap="round" stroke-linejoin="round" stroke-miterlimit="10" d="
			M119.7,207.5c-0.7-0.2-1.5-0.4-2.2-0.6"/>
		<path fill="none" stroke="#F3DFC1" stroke-width="1" stroke-linecap="round" stroke-linejoin="round" stroke-miterlimit="10" d="
			M128.5,209.2c0.7,0.1,1.5,0.3,2.2,0.4"/>
		<path fill="none" stroke="#F3DFC1" stroke-width="1" stroke-linecap="round" stroke-linejoin="round" stroke-miterlimit="10" d="
			M121.9,207.9c-0.5-0.1-1-0.3-1.5-0.4"/>
		<path fill="none" stroke="#F3DFC1" stroke-width="1" stroke-linecap="round" stroke-linejoin="round" stroke-miterlimit="10" d="
			M117.9,207.3c0.7,0.1,1.5,0.3,2.2,0.4"/>
		<path fill="none" stroke="#F3DFC1" stroke-width="1" stroke-linecap="round" stroke-linejoin="round" stroke-miterlimit="10" d="
			M126.3,208.8c0.5,0.1,1,0.1,1.5,0.2"/>
		<path fill="none" stroke="#F3DFC1" stroke-width="1" stroke-linecap="round" stroke-linejoin="round" stroke-miterlimit="10" d="
			M125.6,208.6c-0.5-0.1-1.3,0-1.4-0.2c-0.4-0.9-0.8-0.8-1.5-0.5"/>
		<path fill="none" stroke="#F3DFC1" stroke-width="1" stroke-linecap="round" stroke-linejoin="round" stroke-miterlimit="10" d="
			M115.7,207c0.5,0.1,1,0.1,1.5,0.2"/>
		<path fill="none" stroke="#F3DFC1" stroke-width="1" stroke-linecap="round" stroke-linejoin="round" stroke-miterlimit="10" d="
			M115,206.8c-0.5-0.1-1.3,0-1.4-0.2c-0.4-0.9-0.8-0.8-1.5-0.5"/>
		<path fill="none" stroke="#F3DFC1" stroke-width="1" stroke-linecap="round" stroke-linejoin="round" stroke-miterlimit="10" d="
			M111.7,206.2c-0.6,0-1.2,0-2,0c0.6-0.8,0.6-0.8,1.6-0.2"/>
		<path fill="none" stroke="#F3DFC1" stroke-width="1" stroke-linecap="round" stroke-linejoin="round" stroke-miterlimit="10" d="
			M356.1,319.7c-0.7-0.5-1.5-1-2.2-1.5"/>
		<path fill="none" stroke="#F3DFC1" stroke-width="1" stroke-linecap="round" stroke-linejoin="round" stroke-miterlimit="10" d="
			M354.6,363.2c0.3,0.4,0.5,0.9,0.9,1.5c-0.1,0.2-0.2,0.6-0.4,1.2c0.4,0.3,0.8,0.5,1.1,0.8c-0.1,0.6-0.3,1.2-0.4,1.8
			c0.4,0.3,0.8,0.5,1.2,0.7c-0.1,0.4-0.3,0.9-0.5,1.4c0.4,0.3,0.8,0.6,1.2,0.8c-0.2,0.5-0.3,0.9-0.5,1.4c0.4,0.3,0.8,0.5,1.2,0.8
			c-0.1,0.5-0.3,1.1-0.5,1.8c0.3,0.2,0.7,0.5,1.2,0.8c-0.1,0.5-0.3,1-0.4,1.5c0.4,0.3,0.8,0.5,1.2,0.7c-0.1,0.7-0.3,1.2-0.5,1.9
			c0.4,0.3,0.8,0.5,1.2,0.7c-0.1,0.4-0.3,0.9-0.5,1.4c0.4,0.3,0.8,0.5,1.1,0.8c-0.1,0.6-0.3,1.2-0.4,1.9c0.4,0.2,0.8,0.4,1,0.5
			c0.1,0.8,0.1,1.4,0.2,2"/>
		<path fill="none" stroke="#F3DFC1" stroke-width="1" stroke-linecap="round" stroke-linejoin="round" stroke-miterlimit="10" d="
			M108.2,205.7c0.5,0.1,1,0.3,1.5,0.4"/>
		<path fill="none" stroke="#F3DFC1" stroke-width="1" stroke-linecap="round" stroke-linejoin="round" stroke-miterlimit="10" d="
			M352,354.7c0.3,0.4,0.5,0.9,0.9,1.5c-0.1,0.4-0.2,1-0.4,1.7c0.4,0.2,0.8,0.4,1.2,0.7c-0.1,0.4-0.3,0.9-0.5,1.4
			c0.4,0.3,0.8,0.5,0.8,0.5c0.3,1.2,0.4,2.1,0.7,2.9c0.2,0,0.3,0,0.5-0.1c-0.1,0.4-0.3,0.8-0.5,1.4c0.4,0.3,0.8,0.6,1.2,0.8
			c-0.2,0.5-0.3,0.9-0.5,1.4c0.4,0.3,0.8,0.5,1.2,0.8c-0.1,0.5-0.3,1.1-0.5,1.8c0.3,0.2,0.6,0.4,1.1,0.7c-0.1,0.5-0.2,1-0.4,1.6
			c0.4,0.2,0.7,0.4,1.1,0.7c-0.1,0.7-0.3,1.2-0.4,1.9c0.4,0.3,0.8,0.5,1.2,0.7c-0.1,0.4-0.3,0.9-0.5,1.4c0.4,0.3,0.8,0.5,1.2,0.8
			c-0.6,1-0.7,1.8,0.7,2.2c-0.1,0.6-0.3,1.1-0.5,1.8c0.3,0.2,0.7,0.5,1.2,0.8c-0.1,0.4-0.3,0.8-0.4,1.4c0.9,0.6,1.8,1.2,0.7,2.4
			c0.3,0.6,0.6,1,0.9,1.5"/>
		<path fill="none" stroke="#F3DFC1" stroke-width="1" stroke-linecap="round" stroke-linejoin="round" stroke-miterlimit="10" d="
			M361.6,370.5c0,0.6,0,1.2,0,2.1c0.1,0,0.4,0.3,0.9,0.6c-0.1,0.5-0.2,1-0.4,1.6c0.4,0.2,0.7,0.4,0.8,0.5c0.1,1,0.2,1.7,0.3,2.4"/>
		<path fill="none" stroke="#F3DFC1" stroke-width="1" stroke-linecap="round" stroke-linejoin="round" stroke-miterlimit="10" d="
			M346.9,338.2c0.4,1.2,0.7,2.3,1.1,3.5"/>
		<path fill="none" stroke="#F3DFC1" stroke-width="1" stroke-linecap="round" stroke-linejoin="round" stroke-miterlimit="10" d="
			M347.3,327.2c-0.5,1.3,0.5,1.9,1.1,2.3c0.1,1,0.3,1.7,0.4,2.3"/>
		<path fill="none" stroke="#F3DFC1" stroke-width="1" stroke-linecap="round" stroke-linejoin="round" stroke-miterlimit="10" d="
			M178.8,217.4c-0.4,0-0.8,0-1.3,0"/>
		<path fill="none" stroke="#F3DFC1" stroke-width="1" stroke-linecap="round" stroke-linejoin="round" stroke-miterlimit="10" d="
			M176.6,217.1c-0.4,0-0.8,0-1.3,0"/>
		<path fill="none" stroke="#F3DFC1" stroke-width="1" stroke-linecap="round" stroke-linejoin="round" stroke-miterlimit="10" d="
			M172.7,216.7c-0.4,0-0.8,0-1.3,0"/>
		<path fill="none" stroke="#F3DFC1" stroke-width="1" stroke-linecap="round" stroke-linejoin="round" stroke-miterlimit="10" d="
			M171.1,216.5c-0.6-0.1-1.2-0.1-1.8-0.2"/>
		<path fill="none" stroke="#F3DFC1" stroke-width="1" stroke-linecap="round" stroke-linejoin="round" stroke-miterlimit="10" d="
			M153.6,213.4c-0.4,0-0.8,0-1.3,0"/>
		<path fill="none" stroke="#F3DFC1" stroke-width="1" stroke-linecap="round" stroke-linejoin="round" stroke-miterlimit="10" d="
			M152,213.2c-0.6-0.1-1.2-0.1-1.8-0.2"/>
		<path fill="none" stroke="#F3DFC1" stroke-width="1" stroke-linecap="round" stroke-linejoin="round" stroke-miterlimit="10" d="
			M365.4,396c0.1,1,0.1,1.9,0.2,3.1c0.1,0.1,0.5,0.3,0.6,0.4c0.1,1,0.2,1.7,0.3,2.4"/>
		<path fill="none" stroke="#F3DFC1" stroke-width="1" stroke-linecap="round" stroke-linejoin="round" stroke-miterlimit="10" d="
			M149.1,212.3c-0.4,0-0.8,0-1.3,0"/>
		<path fill="none" stroke="#F3DFC1" stroke-width="1" stroke-linecap="round" stroke-linejoin="round" stroke-miterlimit="10" d="
			M146.9,211.9c-0.4,0-0.8,0-1.3,0"/>
		<path fill="none" stroke="#F3DFC1" stroke-width="1" stroke-linecap="round" stroke-linejoin="round" stroke-miterlimit="10" d="
			M143,211.6c-0.4,0-0.8,0-1.3,0"/>
		<path fill="none" stroke="#F3DFC1" stroke-width="1" stroke-linecap="round" stroke-linejoin="round" stroke-miterlimit="10" d="
			M141.4,211.4c-0.6-0.1-1.2-0.1-1.8-0.2"/>
		<path fill="none" stroke="#F3DFC1" stroke-width="1" stroke-linecap="round" stroke-linejoin="round" stroke-miterlimit="10" d="
			M138.4,210.5c-0.4,0-0.8,0-1.3,0"/>
		<path fill="none" stroke="#F3DFC1" stroke-width="1" stroke-linecap="round" stroke-linejoin="round" stroke-miterlimit="10" d="
			M132.4,209.7c-0.4,0-0.8,0-1.3,0"/>
		<path fill="none" stroke="#F3DFC1" stroke-width="1" stroke-linecap="round" stroke-linejoin="round" stroke-miterlimit="10" d="
			M127.8,208.6c-0.6-0.1-1.2-0.1-1.8-0.2"/>
		<path fill="none" stroke="#F3DFC1" stroke-width="1" stroke-linecap="round" stroke-linejoin="round" stroke-miterlimit="10" d="
			M123.9,208.3c-0.4,0-0.8,0-1.3,0"/>
		<path fill="none" stroke="#F3DFC1" stroke-width="1" stroke-linecap="round" stroke-linejoin="round" stroke-miterlimit="10" d="
			M125.6,208.3c-0.4,0-0.8,0-1.3,0"/>
		<path fill="none" stroke="#F3DFC1" stroke-width="1" stroke-linecap="round" stroke-linejoin="round" stroke-miterlimit="10" d="
			M113.3,206.4c-0.4,0-0.8,0-1.3,0"/>
		<path fill="none" stroke="#F3DFC1" stroke-width="1" stroke-linecap="round" stroke-linejoin="round" stroke-miterlimit="10" d="
			M122.3,208.1c-0.6-0.1-1.2-0.1-1.8-0.2"/>
		<path fill="none" stroke="#F3DFC1" stroke-width="1" stroke-linecap="round" stroke-linejoin="round" stroke-miterlimit="10" d="
			M117.2,206.8c-0.6-0.1-1.2-0.1-1.8-0.2"/>
		<path fill="none" stroke="#F3DFC1" stroke-width="1" stroke-linecap="round" stroke-linejoin="round" stroke-miterlimit="10" d="
			M347.8,340.6c0.3,0.9,0.6,1.9,1,3c0,0.1-0.1,0.4-0.2,0.6c0.4,1.2,0.8,2.3,1.2,3.3"/>
		<path fill="none" stroke="#F3DFC1" stroke-width="1" stroke-linecap="round" stroke-linejoin="round" stroke-miterlimit="10" d="
			M357.7,360.4c-0.1-0.7-0.1-1.3-0.3-2.4c0,0-0.4-0.3-0.8-0.6c0.1-0.4,0.3-0.8,0.5-1.4c-0.4-0.3-0.8-0.5-1.2-0.8
			c0.1-0.4,0.3-0.8,0.5-1.4c-0.4-0.3-0.8-0.5-1.2-0.8c0.1-0.5,0.3-1,0.5-1.5c-0.4-0.2-0.8-0.4-1.2-0.7c0.1-0.6,0.3-1.1,0.5-1.8
			c-0.3-0.2-0.7-0.5-1.1-0.8c0.1-0.4,0.3-0.8,0.5-1.4c-0.4-0.3-0.8-0.5-1.2-0.8c0.1-0.4,0.3-0.8,0.5-1.4c-0.3-0.2-0.6-0.4-1.1-0.7
			c0.1-0.5,0.2-1,0.4-1.6c-0.4-0.2-0.7-0.4-1.1-0.7c0.1-0.7,0.3-1.2,0.4-1.9c-0.4-0.2-0.8-0.4-1.2-0.7c0.1-0.4,0.3-0.9,0.5-1.4
			c-0.4-0.3-0.8-0.5-1.2-0.8c0.1-0.4,0.3-0.8,0.5-1.4c-0.4-0.3-0.8-0.5-1.2-0.8c0.1-0.4,0.3-0.8,0.4-1.4c-0.4-0.3-0.9-0.6-1.4-1
			c0.2-0.2,0.4-0.4,0.6-0.6c0.1,0,0.2,0,0.3,0.1c-0.1,0.6-0.2,1.2-0.3,1.8c0.4,0.3,0.8,0.5,1.1,0.8c-0.2,0.5-0.3,0.9-0.5,1.4
			c0.3,0.2,0.6,0.4,1.1,0.7c-0.1,0.5-0.2,1-0.4,1.6c0.4,0.2,0.7,0.4,1.2,0.7c-0.1,0.4-0.3,0.9-0.4,1.3c-0.1,0.1-0.3,0.3-0.4,0.4
			c0.5,0.3,1,0.6,1.5,1c-0.1,0.4-0.3,0.8-0.5,1.4c0.4,0.3,0.8,0.5,1.2,0.8c-0.1,0.4-0.3,0.8-0.5,1.4c0.4,0.3,0.8,0.5,1.2,0.8
			c-0.1,0.5-0.3,1-0.4,1.5c0.4,0.3,0.8,0.5,1.2,0.7c-0.1,0.4-0.3,0.9-0.5,1.4c0.8,0.6,1.9,1.2,0.6,2.5c0.5,0.3,0.9,0.6,1.3,0.9
			c-0.1,0.5-0.3,1-0.4,1.5c0.4,0.3,0.8,0.5,1.2,0.7c-0.1,0.4-0.3,0.9-0.5,1.4c0.4,0.3,0.8,0.5,1.2,0.8c-0.1,0.4-0.3,0.8-0.4,1.2
			c-0.1,0.8,1.8,0.6,0.9,1.8"/>
		<path fill="none" stroke="#F3DFC1" stroke-width="1" stroke-linecap="round" stroke-linejoin="round" stroke-miterlimit="10" d="
			M115,206.4c-0.4,0-0.8,0-1.3,0"/>
		<path fill="none" stroke="#F3DFC1" stroke-width="1" stroke-linecap="round" stroke-linejoin="round" stroke-miterlimit="10" d="
			M358.3,360.2c0,0.6,0,1.2,0,2.1c0.1,0.1,0.5,0.4,1,0.7c-0.1,0.4-0.3,0.8-0.5,1.4c0.4,0.3,0.8,0.5,1.2,0.8
			c-0.1,0.4-0.3,0.8-0.4,1.4c0.1,0.7,1.8,0.6,1,1.8"/>
		<path fill="none" stroke="#F3DFC1" stroke-width="1" stroke-linecap="round" stroke-linejoin="round" stroke-miterlimit="10" d="
			M348.4,343c0.3,0.4,0.5,0.9,0.9,1.5c0,0-0.1,0.3-0.1,0.5"/>
		<path fill="none" stroke="#F3DFC1" stroke-width="1" stroke-linecap="round" stroke-linejoin="round" stroke-miterlimit="10" d="
			M350.2,348.9c0.3,0.4,0.5,0.9,0.9,1.5c-0.1,0.3-0.2,0.9-0.4,1.6c0.3,0.2,0.6,0.4,0.9,0.5c0.2,0.9,0.4,1.7,0.6,2.5
			c0.1,0,0.1,0,0.2-0.1c0.1,0.6,0.1,1.2,0.2,1.8"/>
		<path fill="none" stroke="#F3DFC1" stroke-width="1" stroke-linecap="round" stroke-linejoin="round" stroke-miterlimit="10" d="
			M364.9,380.8c0,0.6,0,1.2,0,2.1c0.1,0.1,0.5,0.4,1,0.7c-0.1,0.4-0.3,0.8-0.4,1.4c0.1,0.7,1.8,0.6,1,1.8"/>
		<path fill="none" stroke="#F3DFC1" stroke-width="1" stroke-linecap="round" stroke-linejoin="round" stroke-miterlimit="10" d="
			M363,389c-0.4-0.3-0.7-0.6-1.1-0.9c0.2-0.2,0.4-0.4,0.8-0.8c0,0.6,0,0.9,0,1.3"/>
		<path fill="none" stroke="#F3DFC1" stroke-width="1" stroke-linecap="round" stroke-linejoin="round" stroke-miterlimit="10" d="
			M367.1,401.7c0,0.5,0,1,0,1.5c0,0.3,0.2,0.6,0.4,0.9"/>
		<path fill="none" stroke="#F3DFC1" stroke-width="1" stroke-linecap="round" stroke-linejoin="round" stroke-miterlimit="10" d="
			M346.2,322.8c0,0.5,0,1,0,1.8c0.1,0,0.4,0.3,0.8,0.5c0.4,1.7,0.8,3.5,1.2,5.3"/>
		<path fill="none" stroke="#F3DFC1" stroke-width="1" stroke-linecap="round" stroke-linejoin="round" stroke-miterlimit="10" d="
			M352.9,357.1c0.1,0.6,0.1,1.1,0.3,2c0,0,0.4,0.3,0.8,0.6c-0.1,0.4-0.3,0.8-0.4,1.2c0.3,0.5,0.6,1,0.9,1.5"/>
		<path fill="none" stroke="#F3DFC1" stroke-width="1" stroke-linecap="round" stroke-linejoin="round" stroke-miterlimit="10" d="
			M345.6,323.2c0.4,0.3,0.7,0.6,0.9,0.7c0.1,0.8,0.1,1.4,0.2,2"/>
		<path fill="none" stroke="#F3DFC1" stroke-width="1" stroke-linecap="round" stroke-linejoin="round" stroke-miterlimit="10" d="
			M351.1,351.3c0.1,0.3,0.1,0.6,0.2,0.9c0.1,0.4,0.1,0.8,0.2,1.3"/>
		<path fill="none" stroke="#F3DFC1" stroke-width="1" stroke-linecap="round" stroke-linejoin="round" stroke-miterlimit="10" d="
			M349.6,346.5c0.3,0.9,0.6,1.8,0.8,2.6c0,0,0.1,0,0.1-0.1c0.1,0.6,0.1,1.2,0.2,1.8"/>
		<path fill="none" stroke="#F3DFC1" stroke-width="1" stroke-linecap="round" stroke-linejoin="round" stroke-miterlimit="10" d="
			M227.3,211.9c-0.1,0.3-0.3,0.5-0.4,0.7"/>
		<path fill="none" stroke="#F3DFC1" stroke-width="1" stroke-linecap="round" stroke-linejoin="round" stroke-miterlimit="10" d="
			M227.3,221.1c0.4,0.4,0.7,0.7,1.1,1.1"/>
	</g>
</g>
</svg>
