<?xml version="1.0" encoding="utf-8"?>
<!-- Generator: Adobe Illustrator 18.0.0, SVG Export Plug-In . SVG Version: 6.00 Build 0)  -->
<!DOCTYPE svg PUBLIC "-//W3C//DTD SVG 1.1 Tiny//EN" "http://www.w3.org/Graphics/SVG/1.1/DTD/svg11-tiny.dtd">
<svg version="1.1" baseProfile="tiny" id="Layer_1" xmlns="http://www.w3.org/2000/svg" xmlns:xlink="http://www.w3.org/1999/xlink"
	 x="0px" y="0px" viewBox="137.3 126.7 318.5 548.8" xml:space="preserve">
<g>
	<g>
		<path fill="none" stroke="#F3DFC1" stroke-width="1" stroke-linecap="round" stroke-linejoin="round" stroke-miterlimit="10" d="
			M301.7,203.5c3.6,0.8,3.6,3.3,3.6,6.3c-0.1,49.8-0.1,99.6-0.1,149.4c0,23.9,0,47.8,0,71.8c0.9,0.2,2.1,0.3,3.3,0.5
			c0.7-0.4,1.4-0.8,2-1.2"/>
		<path fill="none" stroke="#F3DFC1" stroke-width="1" stroke-linecap="round" stroke-linejoin="round" stroke-miterlimit="10" d="
			M389.8,467.3c-11.1,2.4-22.2,4.8-33.4,7.3c-10.2,2.3-20.4,4.5-30.6,6.8c-6.7,1.5-13.4,2.9-20.4,4.4c0,38.7,0,77.5,0,116.9
			c8.8-1.9,17.7-4.6,26.7-6.9s17.9-4.8,26.9-7.2c9-2.4,18.1-4.8,27.3-7.2c0.2-3.1,0.4-6.1,0.6-9.1c0.5-13,1.1-26,1.5-38.9
			c0.2-5.9,0.3-11.7,0.5-17.6c0.5-11.8,1-23.6,1.5-35.4c0.2-3.8,0.3-7.5,0.3-11.3c0-2.4-2.7-5.1-5.8-6"/>
		<path fill="none" stroke="#F3DFC1" stroke-width="1" stroke-linecap="round" stroke-linejoin="round" stroke-miterlimit="10" d="
			M453.4,301.4c-2.4-2.5-5.3-1.5-8-1c-12.9,2.4-25.8,5-38.7,7.5c-7,1.4-14.1,2.7-21.1,4c-1.2,0.3-2,0.8-2.1,2.3
			c-0.1,3.4-0.4,6.9-0.5,10.3c-0.3,9.3-0.5,18.6-0.8,27.9c-0.3,10.4-0.7,20.7-1,31.1c-0.4,10.1-0.7,20.2-1,30.4
			c-0.3,8.2-0.7,16.4-1,24.6c-0.1,0.8,0,1.5,0,1.7c2.9,3.9,6.3,3.3,9.8,2.4c11.2-3.1,22.4-6.1,33.6-9c5.8-1.6,11.7-3,17.6-4.5
			c0.6-0.2,1.2-0.2,1.9-0.3c-0.3,4.4-0.5,8.5-0.8,12.9c-6.1,1.7-12.3,3.4-18.5,5c-16,4.4-32,8.7-47.9,13.1c-5.8,1.6-11.7,3-17.6,4.5
			c-3.1,0.8-4.4-1.7-6-2.9c0-3.8-0.1-7.1,0-10.4c0.2-8.8,0.5-17.6,0.7-26.4c0.1-1.4-0.2-2.7-0.3-4"/>
		<path fill="none" stroke="#F3DFC1" stroke-width="1" stroke-linecap="round" stroke-linejoin="round" stroke-miterlimit="10" d="
			M442.6,428.6c1.5-0.6,3-1.1,4.7-1.7c2.5-41.4,5.1-83,7.6-124.6c0-0.3-0.5-0.5-0.5-0.6c-3.3,0.7-6.4,1.4-9.5,2
			c-7.4,1.5-14.9,2.8-22.3,4.3c-10.6,2.1-21.3,4.1-31.9,6.3c-2.2,0.5-3.8-0.4-5.5-1.3"/>
		<path fill="none" stroke="#F3DFC1" stroke-width="1" stroke-linecap="round" stroke-linejoin="round" stroke-miterlimit="10" d="
			M262.6,131.4c3.3-1.7,6.6-0.7,9.8,0.3c10.4,3.2,20.9,6.4,31.4,9.5c13.9,4.2,27.8,8.4,41.7,12.6c16.8,5,33.6,10,50.5,15.1
			c9.5,2.9,19.1,5.9,28.6,8.8c4.3,1.3,8.7,2.5,13.1,3.8c0.3,0.1,0.5,0.5,0.8,0.8"/>
		<path fill="none" stroke="#F3DFC1" stroke-width="1" stroke-linecap="round" stroke-linejoin="round" stroke-miterlimit="10" d="
			M260.6,140c0-1.9,0-3.7,0-5.5c0-0.9,0-1.9,0-3.2c1.3,0.4,2.3,0.7,3.3,1c7.7,2.4,15.4,4.6,23.1,7c9.5,3,18.9,6.1,28.4,9
			c11.7,3.6,23.4,7,35.1,10.6c13.7,4.2,27.5,8.3,41.2,12.6c12.6,3.8,25.1,7.7,37.7,11.5c0.6,0.2,1.2,0.5,1.8,0.8"/>
		<path fill="none" stroke="#F3DFC1" stroke-width="1" stroke-linecap="round" stroke-linejoin="round" stroke-miterlimit="10" d="
			M257.3,138.9c11.7,3.8,23.4,7.5,35.1,11.3c17.9,5.8,35.8,11.6,53.7,17.3c13,4.2,26,8.2,38.9,12.3c13.2,4.2,26.3,8.5,39.4,12.8
			c3.4,1.1,6.7,2.1,10,3.3c3.6,1.3,7,0.1,10.5-0.3c0.4-0.1,0.7,0,1,0"/>
		<path fill="none" stroke="#F3DFC1" stroke-width="1" stroke-linecap="round" stroke-linejoin="round" stroke-miterlimit="10" d="
			M141.3,182.4c0.5,8.4,1,16.7,1.5,25.1c0.4,6,0.7,12,1,18.1c0.5,7.4,1,14.7,1.5,22.1c0.4,6.1,0.7,12.2,1,18.3
			c0.5,7.4,1,14.9,1.5,22.3c0.4,6,0.7,12,1,18.1c0.5,7.4,1,14.7,1.5,22.1c0.4,5.8,0.7,11.5,1,17.3"/>
		<path fill="none" stroke="#F3DFC1" stroke-width="1" stroke-linecap="round" stroke-linejoin="round" stroke-miterlimit="10" d="
			M307.5,199.7c12.6-1.6,25.1-3.2,37.7-4.8c13.7-1.8,27.5-3.7,41.2-5.5c7.2-1,13,0.1,18.2,3.2c-0.6,15.9-1.3,31.7-1.9,47.6
			c-15.8,2.5-31.3,4.9-47.2,7.4c0,3.6,0.1,7.2,0,10.8c-0.1,6.6-0.2,13.2-0.3,19.8c-0.3,12.2-0.5,24.4-0.8,36.6
			c-0.2,7.6-0.4,15.2-0.5,22.8c-0.3,12.6-0.5,25.1-0.8,37.7c-0.2,7.6-0.3,15.2-0.5,22.8c-0.2,7.3-0.5,14.6-0.7,21.6
			c-2.7,0.8-5.3,1.5-7.9,2.3"/>
		<path fill="none" stroke="#F3DFC1" stroke-width="1" stroke-linecap="round" stroke-linejoin="round" stroke-miterlimit="10" d="
			M148.1,142c3.2,1.4,6.3,3,9.5,4.3c15.3,6.1,30.6,12.3,45.9,18.3c27.3,10.9,54.6,21.7,81.8,32.6c3.2,1.3,6.4,2.7,9.5,4"/>
		<path fill="none" stroke="#F3DFC1" stroke-width="1" stroke-linecap="round" stroke-linejoin="round" stroke-miterlimit="10" d="
			M165.7,516c-0.1,3.4,0.6,6.2,3.2,8.9c8.1,8.6,15.8,17.6,23.7,26.5c6.1,6.9,12.3,13.9,18.3,20.8c8,9.2,16,18.4,24.1,27.6
			c5.6,6.4,11.4,12.7,17.1,19.1c5.5,6.2,10.8,12.6,16.3,18.8c4.1,4.6,8.2,9.2,12.3,13.8c4.8,5.4,9.5,10.9,14.3,16.3
			c0.3,0.3,0.7,0.4,1,0.5"/>
		<path fill="none" stroke="#F3DFC1" stroke-width="1" stroke-linecap="round" stroke-linejoin="round" stroke-miterlimit="10" d="
			M295.2,308.9c-2.4-1.2-4.9-2.2-7.3-3.5c-23.8-13.5-47.5-27.1-71.3-40.7c-21.3-12.2-42.7-24.4-64-36.6c-0.2-0.2-0.5-0.2-0.8-0.3"/>
		<path fill="none" stroke="#F3DFC1" stroke-width="1" stroke-linecap="round" stroke-linejoin="round" stroke-miterlimit="10" d="
			M148.9,230.1c6.1,3.6,12.2,7.2,18.3,10.8c14.7,8.5,29.4,17.1,44.2,25.6c14.5,8.3,29,16.5,43.4,24.9c12.9,7.5,25.8,15.1,38.7,22.5
			c0.5,0.3,1.2,0.4,1.8,0.5"/>
		<path fill="none" stroke="#F3DFC1" stroke-width="1" stroke-linecap="round" stroke-linejoin="round" stroke-miterlimit="10" d="
			M163.9,440.7c0.4,4.9,0.7,9.7,1,14.6c0.5,7.9,1,15.9,1.5,23.8c0.4,5.9,0.7,11.7,1,17.6c0.4,6,0.6,12,0.9,17.8
			c4.1,4.6,7.9,9.1,11.9,13.6c3.6,4,7.2,7.8,10.8,11.8c6.6,7.4,13.2,14.9,19.8,22.3c3.6,4,7.2,7.8,10.8,11.8
			c6.6,7.4,13.2,14.9,19.8,22.3c3.6,4,7.2,7.8,10.8,11.8c6.6,7.4,13.2,14.9,19.8,22.3c3.2,3.5,6.4,7,9.5,10.5
			c4.4,4.9,8.7,9.7,13.1,14.6c0.3,0.4,0.8,0.5,1.3,0.8"/>
		<path fill="none" stroke="#F3DFC1" stroke-width="1" stroke-linecap="round" stroke-linejoin="round" stroke-miterlimit="10" d="
			M169.7,519.5c7,7.9,14.1,15.8,21.1,23.6c4.9,5.5,9.9,10.8,14.8,16.3c6.2,6.9,12.2,13.9,18.3,20.8c4.9,5.5,9.9,10.8,14.8,16.3
			c6.2,6.9,12.2,13.9,18.3,20.8c4.9,5.5,9.9,10.8,14.8,16.3c6.2,6.9,12.2,13.9,18.4,20.8c1.8,2,3.8,3.9,5.8,5.8"/>
		<path fill="none" stroke="#F3DFC1" stroke-width="1" stroke-linecap="round" stroke-linejoin="round" stroke-miterlimit="10" d="
			M157.4,320.4c11,8.4,22,16.8,33.1,25.1c22.6,17,45.3,34,68,51c11.7,8.7,23.4,17.4,35.1,26.1c0.6,0.5,1.2,0.9,1.8,1.3"/>
		<path fill="none" stroke="#F3DFC1" stroke-width="1" stroke-linecap="round" stroke-linejoin="round" stroke-miterlimit="10" d="
			M157.6,325c4,2.9,8.1,5.8,12,8.8c17.7,13.3,35.3,26.6,53,39.9c16.9,12.8,33.6,25.6,50.5,38.4c8.5,6.5,17.2,12.8,25.6,19.4
			c2.4,1.9,4.3,1.4,6.6,0.5"/>
		<path fill="none" stroke="#F3DFC1" stroke-width="1" stroke-linecap="round" stroke-linejoin="round" stroke-miterlimit="10" d="
			M433.3,443.9c-0.1,4.3-0.1,8.5-0.3,12.8c-0.3,4.9-0.7,9.9-1,14.8c-0.5,8.5-1.1,17.1-1.5,25.6c-0.4,6.6-0.7,13.2-1,19.8
			c-0.5,8.3-1,16.6-1.5,24.9c-0.4,6.7-0.6,13.4-1,20.1c-0.4,5.6-0.8,11.2-1.3,16.8"/>
		<path fill="none" stroke="#F3DFC1" stroke-width="1" stroke-linecap="round" stroke-linejoin="round" stroke-miterlimit="10" d="
			M160.7,426.4c3.8,3.5,7.6,7,11.3,10.5c6.2,6,12.4,12,18.6,18.1c7.9,7.6,15.9,15.3,23.8,22.8c7.2,6.9,14.4,13.7,21.6,20.6
			c7.9,7.5,15.7,15.1,23.6,22.6c7.2,6.9,14.4,13.7,21.6,20.6c4.1,3.9,8.2,7.9,12.3,11.8c0.7,0.6,1.5,1,2.3,1.5"/>
		<path fill="none" stroke="#F3DFC1" stroke-width="1" stroke-linecap="round" stroke-linejoin="round" stroke-miterlimit="10" d="
			M163.4,429.6c0.1,1.9,0.1,3.3,1.9,4.9c5.8,5,11.1,10.6,16.7,16c9.3,8.9,18.6,17.9,27.9,26.9c8.1,7.8,16.3,15.6,24.3,23.3
			c9.8,9.4,19.6,18.9,29.4,28.4c4,3.9,8,7.7,12,11.5c6.7,6.3,13.4,12.6,20.1,18.8"/>
		<path fill="none" stroke="#F3DFC1" stroke-width="1" stroke-linecap="round" stroke-linejoin="round" stroke-miterlimit="10" d="
			M388.6,314.9c-0.3,3.9-0.6,7.7-0.8,11.5c-0.4,11.2-0.7,22.4-1.1,33.6c-0.2,6.6-0.5,13.2-0.8,19.8c-0.5,12.7-0.9,25.3-1.3,37.9
			c-0.3,6.8-0.5,13.6-0.8,20.3c-0.1,1.7-0.2,3.4-0.3,5"/>
		<path fill="none" stroke="#F3DFC1" stroke-width="1" stroke-linecap="round" stroke-linejoin="round" stroke-miterlimit="10" d="
			M246.5,296.6c-6.6-3.9-13.2-7.9-19.8-11.8c-12.7-7.5-25.3-15.1-37.9-22.6c-0.8-0.5-1.6-0.8-2.9-1.4c0.6,15.2,1.1,30,1.7,45.1
			c-7.4,1.3-15.1,2.7-22.7,4"/>
		<path fill="none" stroke="#F3DFC1" stroke-width="1" stroke-linecap="round" stroke-linejoin="round" stroke-miterlimit="10" d="
			M152.9,311.9c-0.4,0.8-1,1.5-1,2.3c0.4,7.1,0.8,14.2,1.2,21.3c0.4,6,0.9,12,1.3,18.1c0.5,7.9,1,15.7,1.5,23.6
			c0.4,6.1,0.7,12.2,1,18.3c0.5,7.4,1,14.9,1.5,22.3c0.4,6,0.7,12,1,18.1c0.5,7.7,1,15.4,1.5,23.1c0.1,1.9,0.1,3.7,0.3,5.5
			c0.1,0.7,0.8,1.4,1.2,2"/>
		<path fill="none" stroke="#F3DFC1" stroke-width="1" stroke-linecap="round" stroke-linejoin="round" stroke-miterlimit="10" d="
			M256.5,130.7c0.2,10.5,0.4,21.1,0.5,31.6c0.1,6,0,12,0,18.3c-2.6-0.9-5.3-1.7-8-2.8c-14.6-5.7-29.1-11.3-43.7-17.1
			c-10.2-4-20.4-8-30.6-12c-5.8-2.3-11.5-4.7-17.3-7c-1.3-0.5-2.7-0.7-4-1"/>
		<path fill="none" stroke="#F3DFC1" stroke-width="1" stroke-linecap="round" stroke-linejoin="round" stroke-miterlimit="10" d="
			M295.5,429.6c0,42,0,84,0,126c0.3-0.2,0.6-0.3,0.9-0.4c1.4,1.6,2.7,3.1,4.1,4.7"/>
		<path fill="none" stroke="#F3DFC1" stroke-width="1" stroke-linecap="round" stroke-linejoin="round" stroke-miterlimit="10" d="
			M141.1,225.8c-0.5,0.2-1,0.3-1.9,0.5c2.2,34.1,4.4,68.2,6.5,102.2c0.7,0.6,1.4,1.2,2.3,1.9c0,0.2,0.1,0.6,0.1,0.9
			c0.3,3.9,0.6,7.7,0.8,11.5c0.2,2.7,1.7,4,4.5,3.5"/>
		<path fill="none" stroke="#F3DFC1" stroke-width="1" stroke-linecap="round" stroke-linejoin="round" stroke-miterlimit="10" d="
			M417.2,582c-0.2,5-0.3,10-0.5,15.1c-0.2,3.7-0.6,7.4-0.7,11c-0.2,4.4-0.1,8.7-0.1,13c-15.2,5.5-29.9,10.8-44.7,16.2
			c-14.1,5.1-28.1,10-42.2,15.1c-9,3.3-17.9,6.7-26.9,10c-0.3,0.1-0.7-0.2-1-0.3"/>
		<path fill="none" stroke="#F3DFC1" stroke-width="1" stroke-linecap="round" stroke-linejoin="round" stroke-miterlimit="10" d="
			M311,202c-3.4,0.5-6.7,0.9-10.3,1.4c0,4.2,0,8.2,0,12.2c0,31.6,0,63.3,0,94.9c0,6-0.3,12-0.2,18.1c0.2,33,0.3,65.9,0.5,98.9
			c0,0.2-0.2,0.4-0.3,0.5"/>
		<path fill="none" stroke="#F3DFC1" stroke-width="1" stroke-linecap="round" stroke-linejoin="round" stroke-miterlimit="10" d="
			M452.3,234.8c-2.9,0.6-5.7,1.3-8.5,1.8c-7.8,1.3-15.7,2.3-23.6,3.6c-8.2,1.3-16.4,2.7-24.6,4c-10.9,1.7-21.9,3.4-32.9,5.1
			c-0.8,0.1-1.5,0.5-2.2,0.7c-0.1,2.6-0.3,5.1-0.4,7.6"/>
		<path fill="none" stroke="#F3DFC1" stroke-width="1" stroke-linecap="round" stroke-linejoin="round" stroke-miterlimit="10" d="
			M422.2,622.7c-14.5,5.2-29,10.3-43.4,15.6c-17.6,6.4-35.1,12.9-52.7,19.3c-7.9,2.9-15.9,5.9-23.8,8.8c-0.3,0.1-0.7-0.2-1-0.3"/>
		<path fill="none" stroke="#F3DFC1" stroke-width="1" stroke-linecap="round" stroke-linejoin="round" stroke-miterlimit="10" d="
			M402.9,192.2c-10.5,1.4-21.1,2.9-31.6,4.3c-8.4,1.1-16.7,2.2-25.1,3.3c-8.4,1.1-16.7,2.2-25.1,3.3c-5.3,0.7-10.5,1.5-15.8,2.3"/>
		<path fill="none" stroke="#F3DFC1" stroke-width="1" stroke-linecap="round" stroke-linejoin="round" stroke-miterlimit="10" d="
			M295.5,213.5c-0.1,0.9-0.3,1.7-0.3,2.5c0,13.9-0.1,27.8,0,41.7c0.1,34.9,0.2,69.8,0.3,104.7c0.1,19.8,0.2,39.7,0.2,59.5
			c0,2.3-0.3,4.5-0.5,6.8"/>
		<path fill="none" stroke="#F3DFC1" stroke-width="1" stroke-linecap="round" stroke-linejoin="round" stroke-miterlimit="10" d="
			M154.6,330.5c0.2,4.4,0.3,8.9,0.5,13.3c0.4,6.3,0.9,12.6,1.3,18.8c0.5,7.9,1,15.7,1.5,23.6c0.4,6.1,0.7,12.2,1,18.3
			c0.4,7.6,0.8,15.2,1.3,22.8c0.4,6.4,0.8,12.9,1.3,19.3c0.5,7.4,1.1,14.9,1.5,22.3c0.4,6.1,0.7,12.2,1,18.3
			c0.5,7.9,1,15.7,1.5,23.6c0.1,1.4,0,2.9,0,4.2c1.2,1,2.3,1.8,3.5,2.8c0,1.9,0,4,0,6.1"/>
		<path fill="none" stroke="#F3DFC1" stroke-width="1" stroke-linecap="round" stroke-linejoin="round" stroke-miterlimit="10" d="
			M154.1,318.4c1,0.7,2.1,1.3,2.8,1.8c0.3,5,0.5,9.6,0.7,14.3c0.4,6.4,0.9,12.9,1.3,19.3c0.5,7.9,1,15.9,1.5,23.8
			c0.4,6.1,0.7,12.2,1,18.3c0.5,7.9,1.1,15.9,1.5,23.8c0.2,2.7,0,5.4,0,8"/>
		<path fill="none" stroke="#F3DFC1" stroke-width="1" stroke-linecap="round" stroke-linejoin="round" stroke-miterlimit="10" d="
			M452.8,242.6c-7.3,1.2-14.6,2.3-21.8,3.5c-6.6,1.1-13.2,2.4-19.8,3.5c-4.6,0.8-9.2,1.3-13.8,2.1c-6.7,1.1-13.4,2.2-20.1,3.3
			c-4.8,0.8-9.5,1.5-14.3,2.3c-0.9,0.2-1.7,0.4-2.5,0.5"/>
		<path fill="none" stroke="#F3DFC1" stroke-width="1" stroke-linecap="round" stroke-linejoin="round" stroke-miterlimit="10" d="
			M261.1,198.7c-1-0.5-2-0.9-3.1-1.4c0,4.7,0,9.3,0,14c-24.7,3.2-49.2,6.4-74.1,9.6c-0.2-3.3-0.5-6.5-0.6-9.7
			c-0.5-10.8-1-21.6-1.5-32.4c-0.2-4.3-0.4-8.5-0.5-12.8"/>
		<path fill="none" stroke="#F3DFC1" stroke-width="1" stroke-linecap="round" stroke-linejoin="round" stroke-miterlimit="10" d="
			M296,569.7c0,33,0,66.1,0,99.1c2,2.1,3.8,4,5.4,5.7c3.1-1.2,5.6-2.1,8.4-3.1c0-2.4,0-4.9,0-7.4"/>
		<path fill="none" stroke="#F3DFC1" stroke-width="1" stroke-linecap="round" stroke-linejoin="round" stroke-miterlimit="10" d="
			M441.6,431.4c-12.7,3.4-25.3,6.7-37.9,10c-15.2,4-30.3,7.7-45.4,11.9c-3,0.8-4.3-1.3-6.3-2.1"/>
		<path fill="none" stroke="#F3DFC1" stroke-width="1" stroke-linecap="round" stroke-linejoin="round" stroke-miterlimit="10" d="
			M165.9,339.3c0.4,5.4,0.7,10.9,1,16.3c0.5,8.4,1,16.7,1.5,25.1c0.4,6.2,0.7,12.4,1,18.6c0.5,8.9,1,17.7,1.5,26.6
			c0.1,0.5,0,1,0,1.5"/>
		<path fill="none" stroke="#F3DFC1" stroke-width="1" stroke-linecap="round" stroke-linejoin="round" stroke-miterlimit="10" d="
			M262.1,129.2c-2.5-1.3-5-1.6-7.8-1.3c-12.7,1.2-25.5,2.2-38.2,3.3c-10.5,1-21.1,2-31.6,3c-1,0.1-2,0.2-3,0.3"/>
		<path fill="none" stroke="#F3DFC1" stroke-width="1" stroke-linecap="round" stroke-linejoin="round" stroke-miterlimit="10" d="
			M151.9,232.6c0.7,12.7,1.3,25.5,2,38.2c0.7,11.4,1.3,22.7,2,34.1c0.3,4.5,0.7,9,1,13.6c0.1,0.5-0.2,1-0.3,1.5"/>
		<path fill="none" stroke="#F3DFC1" stroke-width="1" stroke-linecap="round" stroke-linejoin="round" stroke-miterlimit="10" d="
			M310,478.8c-2.1,0.6-4.2,1.5-6.3,1.7c-2.5,0.3-2.8,1.6-2.8,3.6c0.1,28.7,0.1,57.4,0.1,86.1c0,27.9,0,55.7,0,83.6c0,2.7,0,5.4,0,8"
			/>
		<path fill="none" stroke="#F3DFC1" stroke-width="1" stroke-linecap="round" stroke-linejoin="round" stroke-miterlimit="10" d="
			M146.8,151.5c0.8,12.7,1.5,25.5,2.3,38.2c0.6,10.1,1.2,20.2,1.8,30.4c0.2,2.4,0.2,4.7,0.3,7"/>
		<path fill="none" stroke="#F3DFC1" stroke-width="1" stroke-linecap="round" stroke-linejoin="round" stroke-miterlimit="10" d="
			M163.7,433.7c0,2.1,0,4.2,0,6c8.5,8.4,16.8,16.5,25.1,24.7c8,7.9,16.1,15.7,24.1,23.6c6.9,6.7,13.7,13.4,20.6,20.1
			c7.2,7,14.4,14.1,21.6,21.1c6.9,6.7,13.7,13.4,20.6,20.1c6.7,6.5,13.4,12.9,20.1,19.3"/>
		<path fill="none" stroke="#F3DFC1" stroke-width="1" stroke-linecap="round" stroke-linejoin="round" stroke-miterlimit="10" d="
			M257.6,197.2c-13.7-5.8-27.5-11.5-41.2-17.3c-10.8-4.6-21.7-9-32.6-13.6c-0.1,0-0.2,0.2-0.3,0.3"/>
		<path fill="none" stroke="#F3DFC1" stroke-width="1" stroke-linecap="round" stroke-linejoin="round" stroke-miterlimit="10" d="
			M149.1,239.1c0.1,3.4,0.1,6.7,0.3,10c0.4,6.3,0.8,12.6,1.3,18.8c0.6,8.9,1.2,17.9,1.8,26.9c0.4,6.4,0.7,12.7,1,19.1
			c0.3,5.4,0.7,10.7,1.1,16.1c1,0.7,1.9,1.2,2.7,1.8"/>
		<path fill="none" stroke="#F3DFC1" stroke-width="1" stroke-linecap="round" stroke-linejoin="round" stroke-miterlimit="10" d="
			M266.1,130.2c-1.4-0.3-2.7-0.8-4-0.7c-9.2,0.8-18.4,1.8-27.6,2.7c-8.4,0.8-16.9,1.5-25.4,2.3c-7.7,0.7-15.4,1.5-23.1,2.2
			c-0.8,0.1-1.7-0.3-2.5-0.5"/>
		<path fill="none" stroke="#F3DFC1" stroke-width="1" stroke-linecap="round" stroke-linejoin="round" stroke-miterlimit="10" d="
			M313.3,430.1c-0.9,0.2-1.7,0.3-2.8,0.5c0,16,0,32,0,48.4c4.1-0.9,8-1.9,12-2.7c7.7-1.6,15.4-3.2,23.1-4.8"/>
		<path fill="none" stroke="#F3DFC1" stroke-width="1" stroke-linecap="round" stroke-linejoin="round" stroke-miterlimit="10" d="
			M158.1,333c5.1,3.9,10.2,7.7,15.3,11.5c15.3,11.7,30.5,23.4,45.7,35.1c10.6,8.2,21.1,16.4,31.6,24.6c0.2,0.2,0.4,0.5,0.5,0.8"/>
		<path fill="none" stroke="#F3DFC1" stroke-width="1" stroke-linecap="round" stroke-linejoin="round" stroke-miterlimit="10" d="
			M228.4,300.1c0.9,1.4,2,2.8,0.9,4.5c-21.4,3.7-42.8,7.4-64.1,11"/>
		<path fill="none" stroke="#F3DFC1" stroke-width="1" stroke-linecap="round" stroke-linejoin="round" stroke-miterlimit="10" d="
			M228.4,301.1c-10.9,1.9-21.7,3.9-32.6,5.8c-9.1,1.6-18.2,3-27.4,4.5c-1.3,0.2-2.5,0.4-3.8,0.5"/>
		<path fill="none" stroke="#F3DFC1" stroke-width="1" stroke-linecap="round" stroke-linejoin="round" stroke-miterlimit="10" d="
			M160.9,246.4c0.5,8.8,1,17.6,1.5,26.4c0.4,6.7,0.7,13.4,1,20.1c0.4,7,0.9,14.1,1.3,21.1c0.1,1.7,0.2,3.4,0.3,5"/>
		<path fill="none" stroke="#F3DFC1" stroke-width="1" stroke-linecap="round" stroke-linejoin="round" stroke-miterlimit="10" d="
			M295.2,438.4c-6.2-4.7-12.4-9.3-18.6-14.1c-8.2-6.3-16.4-12.8-24.7-19.2c-4.8,1.1-9.7,2-14.5,3.1c-12.6,2.8-25.1,5.7-37.7,8.5
			c-9.5,2.2-19.1,4.4-28.6,6.5"/>
		<path fill="none" stroke="#F3DFC1" stroke-width="1" stroke-linecap="round" stroke-linejoin="round" stroke-miterlimit="10" d="
			M310,602.1c-0.1,18.1-0.2,36.1-0.3,54.2c0,0.9,0.2,1.9,0.3,2.8"/>
		<path fill="none" stroke="#F3DFC1" stroke-width="1" stroke-linecap="round" stroke-linejoin="round" stroke-miterlimit="10" d="
			M402.9,239.9c2.9-0.4,5.9-0.6,8.8-1c9.4-1.4,18.7-2.8,28.1-4.3c1.7-0.3,3.4-0.7,5-1c3-0.6,5.9-0.4,8.3,1.4c0,4.3,0.2,8.4-0.1,12.7
			c-0.3,6.3-0.8,12.6-1.2,18.8c-0.6,9.3-1.2,18.6-1.8,27.9c-0.1,1.7-0.2,3.4-0.3,5"/>
		<path fill="none" stroke="#F3DFC1" stroke-width="1" stroke-linecap="round" stroke-linejoin="round" stroke-miterlimit="10" d="
			M186.3,462.5c-4.3,1.2-8.5,2.3-13.1,3.5c0.2,3.9,0.3,7.7,0.6,11.6c0.3,5.2,0.7,10.4,1,15.6c0.4,6.5,0.7,13.1,1,19.6"/>
		<path fill="none" stroke="#F3DFC1" stroke-width="1" stroke-linecap="round" stroke-linejoin="round" stroke-miterlimit="10" d="
			M159.7,226.1c-0.4-6.8-0.9-13.6-1.3-20.3c-0.3-5.2-0.5-10.4-0.8-15.6c-0.5-8.6-1.1-17.2-1.5-25.9c-0.2-3,0-6,0-9.4
			c8.9,3.7,17.9,7.5,27.1,11.3c0.1,0.8,0.3,1.7,0.3,2.6c0.3,10.2,0.5,20.4,0.8,30.6c0.2,7,0.5,14.1,0.8,21.1"/>
		<path fill="none" stroke="#F3DFC1" stroke-width="1" stroke-linecap="round" stroke-linejoin="round" stroke-miterlimit="10" d="
			M348.9,421.1c-0.2,10.3-0.3,20.6-0.5,30.9c-0.2,7-0.4,14.1-0.5,21.1"/>
		<path fill="none" stroke="#F3DFC1" stroke-width="1" stroke-linecap="round" stroke-linejoin="round" stroke-miterlimit="10" d="
			M268.3,143.2c0.2,13.9,0.5,27.8,0.7,42.2c-4-1.6-7.7-3.1-11.4-4.6"/>
		<path fill="none" stroke="#F3DFC1" stroke-width="1" stroke-linecap="round" stroke-linejoin="round" stroke-miterlimit="10" d="
			M409.2,627.7c2,1.8,4,3.6,5.8,5.2c2.8-1,5-1.9,7.4-2.8c1-16.8,1.9-33.7,2.8-51c-3.9,1.2-7.5,2.2-11,3.4
			c-11,3.8-22.1,7.7-33.1,11.5c-11,3.8-22.1,7.3-33.1,11.1c-1.9,0.7-3.2,0.7-4.6-0.8c-0.6-0.7-1.4-1.2-2-1.7c0-3.2,0-6.1,0-8.9"/>
		<path fill="none" stroke="#F3DFC1" stroke-width="1" stroke-linecap="round" stroke-linejoin="round" stroke-miterlimit="10" d="
			M220.9,496.4c-14.3,3.8-28.6,7.5-42.9,11.3c-0.7,0.2-1.4,0.5-2,0.8"/>
		<path fill="none" stroke="#F3DFC1" stroke-width="1" stroke-linecap="round" stroke-linejoin="round" stroke-miterlimit="10" d="
			M140.6,226.8c0.4-0.2,1-0.4,1-0.5c-0.5-8.3-1-16.6-1.5-24.9c-0.4-6.4-0.9-12.7-1.3-19.1c-0.2-2.5-0.4-5-0.5-7.6
			c2.3-0.3,4.3-0.5,6.6-0.8c1.4,21.7,2.7,43.2,4,64.6c1.1,0.6,1.9,1,2.8,1.5"/>
		<path fill="none" stroke="#F3DFC1" stroke-width="1" stroke-linecap="round" stroke-linejoin="round" stroke-miterlimit="10" d="
			M250.3,300.1c1.8-1.1,2.9,0.7,4,1.4c7.3,4.1,14.5,8.4,21.6,12.7c5.9,3.5,11.9,7,17.8,10.5c0.5,0.3,1,0.4,1.5,0.5"/>
		<path fill="none" stroke="#F3DFC1" stroke-width="1" stroke-linecap="round" stroke-linejoin="round" stroke-miterlimit="10" d="
			M260.8,140.5c0.2,13.9,0.4,27.8,0.5,41.7"/>
		<path fill="none" stroke="#F3DFC1" stroke-width="1" stroke-linecap="round" stroke-linejoin="round" stroke-miterlimit="10" d="
			M430.8,195.2c-0.5,9.6-1,19.2-1.5,28.9c-0.2,3.9-0.4,7.9-0.5,11.8"/>
		<path fill="none" stroke="#F3DFC1" stroke-width="1" stroke-linecap="round" stroke-linejoin="round" stroke-miterlimit="10" d="
			M301,428.6c0,16.7,0,33.5,0,50.2c0,0.9,0.2,1.7,0.3,2.5"/>
		<path fill="none" stroke="#F3DFC1" stroke-width="1" stroke-linecap="round" stroke-linejoin="round" stroke-miterlimit="10" d="
			M438,185.9c-0.5,8.9-1,17.7-1.5,26.6c-0.3,5.5-0.5,11-0.8,16.6c-0.1,1.9-0.2,3.9-0.3,5.8"/>
		<path fill="none" stroke="#F3DFC1" stroke-width="1" stroke-linecap="round" stroke-linejoin="round" stroke-miterlimit="10" d="
			M445.1,184.4c0.5-0.1,1-0.2,2.1-0.4c-0.1,2-0.2,3.9-0.3,5.7c-0.4,6.6-0.7,13.2-1,19.8c-0.4,8-0.9,16.1-1.3,24.1"/>
		<path fill="none" stroke="#F3DFC1" stroke-width="1" stroke-linecap="round" stroke-linejoin="round" stroke-miterlimit="10" d="
			M269.1,185.4c11.1,4.4,22.2,8.7,33.4,13.1c0.6,0.3,1.2,0.7,1.8,1"/>
		<path fill="none" stroke="#F3DFC1" stroke-width="1" stroke-linecap="round" stroke-linejoin="round" stroke-miterlimit="10" d="
			M344.2,422.9c0.1,4.7,0.2,9.4,0.3,14.1c0,0.9-0.2,1.7-0.3,2.5c-0.1,8.1-0.2,16.2-0.3,24.3c0,2.6,0,5.2,0,7.8"/>
		<path fill="none" stroke="#F3DFC1" stroke-width="1" stroke-linecap="round" stroke-linejoin="round" stroke-miterlimit="10" d="
			M269.1,202.7c0,3.1,0,6.2,0,9.2c8.9,3.8,17.4,7.5,25.9,11.1"/>
		<path fill="none" stroke="#F3DFC1" stroke-width="1" stroke-linecap="round" stroke-linejoin="round" stroke-miterlimit="10" d="
			M311,433.4c10.8,8,21.6,16.1,32.4,24.1"/>
		<path fill="none" stroke="#F3DFC1" stroke-width="1" stroke-linecap="round" stroke-linejoin="round" stroke-miterlimit="10" d="
			M261.8,213c0-4.5,0-9,0-14c12.9,5.4,25.7,10.7,38.4,16"/>
		<path fill="none" stroke="#F3DFC1" stroke-width="1" stroke-linecap="round" stroke-linejoin="round" stroke-miterlimit="10" d="
			M152.6,241.1c3.3,1.9,6.6,3.6,9.8,5.5c7.8,4.7,15.6,9.3,23.3,14.1"/>
		<path fill="none" stroke="#F3DFC1" stroke-width="1" stroke-linecap="round" stroke-linejoin="round" stroke-miterlimit="10" d="
			M181,171.6c-7,0.8-14.1,1.5-21.1,2.3c-0.9,0.1-1.9,0.2-2.8,0.3"/>
		<path fill="none" stroke="#F3DFC1" stroke-width="1" stroke-linecap="round" stroke-linejoin="round" stroke-miterlimit="10" d="
			M181,170.3c-3.7,0.4-7.4,0.6-11,1c-4.3,0.5-8.5,1-12.8,1.5"/>
		<path fill="none" stroke="#F3DFC1" stroke-width="1" stroke-linecap="round" stroke-linejoin="round" stroke-miterlimit="10" d="
			M152.9,140.5c-2.2-1.8-4.7-0.3-7-0.5c-0.9-0.1-1.8,0.4-3,0.7c0.4,5.8,0.9,11.7,1.2,17.6c0.3,5.3,0.4,10.5,0.5,15.8"/>
		<path fill="none" stroke="#F3DFC1" stroke-width="1" stroke-linecap="round" stroke-linejoin="round" stroke-miterlimit="10" d="
			M181.2,177.9c-5.9,0.6-11.9,1.2-17.8,1.8c-1.9,0.2-3.9,0.5-5.8,0.8"/>
		<path fill="none" stroke="#F3DFC1" stroke-width="1" stroke-linecap="round" stroke-linejoin="round" stroke-miterlimit="10" d="
			M183.5,220.8c-6.5,0.9-13.1,1.9-19.6,2.8c-1.3,0.2-2.5,0.4-3.8,0.5"/>
		<path fill="none" stroke="#F3DFC1" stroke-width="1" stroke-linecap="round" stroke-linejoin="round" stroke-miterlimit="10" d="
			M411.2,584c0,2.9,0.1,5.7,0,8.5c-0.3,6.5-0.7,13.1-1,19.6c-0.1,1.5-0.2,3-0.3,4.5"/>
		<path fill="none" stroke="#F3DFC1" stroke-width="1" stroke-linecap="round" stroke-linejoin="round" stroke-miterlimit="10" d="
			M251.8,300.6c-6.5-0.8-12.9,0.5-19.3,0.8c-0.9,0.1-1.9,0.3-2.8,0.5"/>
		<path fill="none" stroke="#F3DFC1" stroke-width="1" stroke-linecap="round" stroke-linejoin="round" stroke-miterlimit="10" d="
			M248.8,301.1c-5.9,1.1-11.7,2.2-17.6,3.3c-0.5,0.1-1-0.2-1.5-0.3"/>
		<path fill="none" stroke="#F3DFC1" stroke-width="1" stroke-linecap="round" stroke-linejoin="round" stroke-miterlimit="10" d="
			M182.7,135.9c-0.8-0.6-1.6-1.2-2.4-1.7c-0.2,0.1-0.4,0.2-0.6,0.2c0.3,5.4,0.5,10.7,0.8,16.1"/>
		<path fill="none" stroke="#F3DFC1" stroke-width="1" stroke-linecap="round" stroke-linejoin="round" stroke-miterlimit="10" d="
			M232.2,390.5c0.2,6.3,0.4,12.6,0.5,18.8"/>
		<path fill="none" stroke="#F3DFC1" stroke-width="1" stroke-linecap="round" stroke-linejoin="round" stroke-miterlimit="10" d="
			M250.5,299.1c-2.1-1.9-4.5-1.7-7-1.3c-3.7,0.5-7.4,0.7-11,1.1c-1.5,0.2-2.9,0.7-4.3,1c-0.3,0.1-0.7-0.3-1-0.5"/>
		<path fill="none" stroke="#F3DFC1" stroke-width="1" stroke-linecap="round" stroke-linejoin="round" stroke-miterlimit="10" d="
			M391.9,590.8c3.8,3.4,7.5,6.9,11.3,10.3c2.3,2,4.5,4,6.8,6"/>
		<path fill="none" stroke="#F3DFC1" stroke-width="1" stroke-linecap="round" stroke-linejoin="round" stroke-miterlimit="10" d="
			M172.2,448.7c0.4,5.6,0.7,11.2,1,16.8"/>
		<path fill="none" stroke="#F3DFC1" stroke-width="1" stroke-linecap="round" stroke-linejoin="round" stroke-miterlimit="10" d="
			M184,137.2c-0.3-0.4-0.6-0.8-0.8-1.2c-0.2,0-0.4-0.1-0.5-0.1c-0.5,5.2,0.2,10.4,0.4,15.6"/>
		<path fill="none" stroke="#F3DFC1" stroke-width="1" stroke-linecap="round" stroke-linejoin="round" stroke-miterlimit="10" d="
			M345.4,592.6c0,4.3,0,8.5,0,12.8"/>
		<path fill="none" stroke="#F3DFC1" stroke-width="1" stroke-linecap="round" stroke-linejoin="round" stroke-miterlimit="10" d="
			M309.8,201.7c-2.8-3.4-6.5-1.4-9.8-1.5c-1.4-0.1-2.9,0.6-4.6,1c-0.2,3.7-0.3,7.5-0.4,11.2"/>
		<path fill="none" stroke="#F3DFC1" stroke-width="1" stroke-linecap="round" stroke-linejoin="round" stroke-miterlimit="10" d="
			M444.6,184.6c-4.4,1.1-8.8,1.3-13.2-1.7c-0.3,4.4-0.5,7.8-0.7,11.2"/>
		<path fill="none" stroke="#F3DFC1" stroke-width="1" stroke-linecap="round" stroke-linejoin="round" stroke-miterlimit="10" d="
			M351.9,407.8c-0.8,2.7-1.6,5.3-2.2,8c-0.3,1.1-0.2,2.2-0.3,3.3"/>
		<path fill="none" stroke="#F3DFC1" stroke-width="1" stroke-linecap="round" stroke-linejoin="round" stroke-miterlimit="10" d="
			M356,453.7c-0.1,3.4-0.2,6.7-0.3,10"/>
		<path fill="none" stroke="#F3DFC1" stroke-width="1" stroke-linecap="round" stroke-linejoin="round" stroke-miterlimit="10" d="
			M310,440.9c-3,0.7-6,1.4-9,2"/>
		<path fill="none" stroke="#F3DFC1" stroke-width="1" stroke-linecap="round" stroke-linejoin="round" stroke-miterlimit="10" d="
			M144.6,141c1.2,0.3,1.8,0.8,1.8,2.3c0,2.5,0.3,5,0.5,7.7c2.7,1.2,5.7,2.5,8.7,3.9"/>
		<path fill="none" stroke="#F3DFC1" stroke-width="1" stroke-linecap="round" stroke-linejoin="round" stroke-miterlimit="10" d="
			M296,560.7c0,2.9,0,5.7,0,8.5c1.5,1.3,3,2.5,4.5,3.8"/>
		<path fill="none" stroke="#F3DFC1" stroke-width="1" stroke-linecap="round" stroke-linejoin="round" stroke-miterlimit="10" d="
			M301.2,666.6c0,2.4,0,4.7,0,7"/>
		<path fill="none" stroke="#F3DFC1" stroke-width="1" stroke-linecap="round" stroke-linejoin="round" stroke-miterlimit="10" d="
			M422.5,618.7c-2.3,0.9-4.5,1.7-6.8,2.5"/>
		<path fill="none" stroke="#F3DFC1" stroke-width="1" stroke-linecap="round" stroke-linejoin="round" stroke-miterlimit="10" d="
			M444.8,183.9c-3.8-2.2-7.7-1.6-11.5-0.3"/>
		<path fill="none" stroke="#F3DFC1" stroke-width="1" stroke-linecap="round" stroke-linejoin="round" stroke-miterlimit="10" d="
			M414.9,625.7c-0.1,2.1-0.2,4.2-0.3,6.3"/>
		<path fill="none" stroke="#F3DFC1" stroke-width="1" stroke-linecap="round" stroke-linejoin="round" stroke-miterlimit="10" d="
			M140.8,176.4c0.1,1.9,0.2,3.7,0.3,5.5"/>
		<path fill="none" stroke="#F3DFC1" stroke-width="1" stroke-linecap="round" stroke-linejoin="round" stroke-miterlimit="10" d="
			M296.7,661.8c1.5,1.4,3,2.9,4.5,4.3"/>
		<path fill="none" stroke="#F3DFC1" stroke-width="1" stroke-linecap="round" stroke-linejoin="round" stroke-miterlimit="10" d="
			M152.9,141c-2.1,0.3-4.2,0.5-6.3,0.8"/>
		<path fill="none" stroke="#F3DFC1" stroke-width="1" stroke-linecap="round" stroke-linejoin="round" stroke-miterlimit="10" d="
			M296.7,657.8c1.5,1.4,3,2.9,4.5,4.3"/>
		<path fill="none" stroke="#F3DFC1" stroke-width="1" stroke-linecap="round" stroke-linejoin="round" stroke-miterlimit="10" d="
			M300.2,317.4c-1.5-0.7-3-1.4-4.5-2"/>
		<path fill="none" stroke="#F3DFC1" stroke-width="1" stroke-linecap="round" stroke-linejoin="round" stroke-miterlimit="10" d="
			M296,439.4c1.5,1.1,3,2.2,4.5,3.3"/>
		<path fill="none" stroke="#F3DFC1" stroke-width="1" stroke-linecap="round" stroke-linejoin="round" stroke-miterlimit="10" d="
			M300.2,328.5c-1.5-0.7-3-1.4-4.5-2"/>
		<path fill="none" stroke="#F3DFC1" stroke-width="1" stroke-linecap="round" stroke-linejoin="round" stroke-miterlimit="10" d="
			M296.2,424.6c3.3,2.5,6.6,5,10.1,7.6c0.6-0.7,1-1.3,1.5-1.9c0.8,0.2,1.6,0.4,2.5,0.6"/>
		<path fill="none" stroke="#F3DFC1" stroke-width="1" stroke-linecap="round" stroke-linejoin="round" stroke-miterlimit="10" d="
			M296,310.1c1.4,0.7,2.9,1.4,4.3,2"/>
		<path fill="none" stroke="#F3DFC1" stroke-width="1" stroke-linecap="round" stroke-linejoin="round" stroke-miterlimit="10" d="
			M296.7,201.2c1.3,0.7,2.5,1.4,3.8,2"/>
		<path fill="none" stroke="#F3DFC1" stroke-width="1" stroke-linecap="round" stroke-linejoin="round" stroke-miterlimit="10" d="
			M296,556.2c0,1.4,0,2.7,0,4c0.2-0.2,0.3-0.3,0.4-0.4c1.4,1.6,2.7,3.1,4.1,4.7"/>
		<path fill="none" stroke="#F3DFC1" stroke-width="1" stroke-linecap="round" stroke-linejoin="round" stroke-miterlimit="10" d="
			M144.6,175.6c-1.5,0-3,0-4.5,0"/>
		<path fill="none" stroke="#F3DFC1" stroke-width="1" stroke-linecap="round" stroke-linejoin="round" stroke-miterlimit="10" d="
			M148.6,226.1c1,0.5,2,1,3,1.5c-0.1,1.4-0.2,2.7-0.3,4.1"/>
		<path fill="none" stroke="#F3DFC1" stroke-width="1" stroke-linecap="round" stroke-linejoin="round" stroke-miterlimit="10" d="
			M356.2,255.7c1.2,0.5,2.4,1,3.5,1.5"/>
		<path fill="none" stroke="#F3DFC1" stroke-width="1" stroke-linecap="round" stroke-linejoin="round" stroke-miterlimit="10" d="
			M301.7,481.9c1.2,1.2,2.4,2.4,3.5,3.5"/>
		<path fill="none" stroke="#F3DFC1" stroke-width="1" stroke-linecap="round" stroke-linejoin="round" stroke-miterlimit="10" d="
			M144.8,181.6c-1.9,0.5-3.7,0.7-5.5-0.3"/>
		<path fill="none" stroke="#F3DFC1" stroke-width="1" stroke-linecap="round" stroke-linejoin="round" stroke-miterlimit="10" d="
			M301.5,598.1c0.9,1.1,1.9,2.2,2.8,3.3"/>
		<path fill="none" stroke="#F3DFC1" stroke-width="1" stroke-linecap="round" stroke-linejoin="round" stroke-miterlimit="10" d="
			M301.2,662.6c0,1,0,2,0,3"/>
		<path fill="none" stroke="#F3DFC1" stroke-width="1" stroke-linecap="round" stroke-linejoin="round" stroke-miterlimit="10" d="
			M309.8,660.1c0,1,0,2,0,3"/>
		<path fill="none" stroke="#F3DFC1" stroke-width="1" stroke-linecap="round" stroke-linejoin="round" stroke-miterlimit="10" d="
			M415.2,621.9c0.1,1,0.2,2,0.3,3"/>
		<path fill="none" stroke="#F3DFC1" stroke-width="1" stroke-linecap="round" stroke-linejoin="round" stroke-miterlimit="10" d="
			M357,247.9c1,0.5,2,1,3,1.5"/>
		<path fill="none" stroke="#F3DFC1" stroke-width="1" stroke-linecap="round" stroke-linejoin="round" stroke-miterlimit="10" d="
			M165.9,511.7c0.7,0.9,1.4,1.7,2,2.5"/>
		<path fill="none" stroke="#F3DFC1" stroke-width="1" stroke-linecap="round" stroke-linejoin="round" stroke-miterlimit="10" d="
			M146.3,150.7c-0.9-0.3-1.7-0.5-2.5-0.8"/>
		<path fill="none" stroke="#F3DFC1" stroke-width="1" stroke-linecap="round" stroke-linejoin="round" stroke-miterlimit="10" d="
			M311.3,430.1c0.9-1.9,2.1,0.2,3.2-0.1c0.6-0.6,1.2-1.2,1.9-1.7c0.8,0.2,1.7,0.4,2.5,0.6c0.5-0.5,1-1,1.6-1.6
			c0.8,0.2,1.7,0.4,2.5,0.6c0.5-0.5,1-1,1.5-1.5c0.9,0.2,1.8,0.4,2.9,0.6c0.4-0.6,0.8-1.1,1.2-1.7c1,0.3,1.8,0.5,2.8,0.7
			c0.4-0.6,0.8-1.2,1.2-1.7c1,0.3,1.8,0.5,2.8,0.7c0.4-0.6,0.7-1.1,1.2-1.7c0.9,0.2,1.8,0.4,2.7,0.6c0.2,0.2,0.4,0.4,0.5,0.5
			c0.4-0.7,0.9-1.4,1.2-2c1.1,0.1,2.2,0.3,3.5,0.4c-1.7-2.3-2,0.5-2.9,0.6c-0.8-0.2-1.5-0.4-2.3-0.6c-0.2-0.2-0.4-0.4-0.5-0.5
			c-0.4,0.7-0.9,1.4-1.3,2.1c-0.9-0.2-1.8-0.4-2.9-0.7c-0.4,0.6-0.8,1.2-1.2,1.7c-1-0.3-1.8-0.5-2.8-0.7c-0.4,0.6-0.7,1.1-1.2,1.7
			c-0.9-0.2-1.8-0.4-2.7-0.7c-0.2-0.2-0.4-0.3-0.5-0.5c-0.4,0.7-0.9,1.4-1.3,2.1c-0.8-0.2-1.5-0.4-2.3-0.5c-0.2-0.2-0.4-0.4-0.5-0.5
			c-0.4,0.7-0.9,1.4-1.3,2.1c-0.8-0.2-1.5-0.4-2.3-0.5c-0.2-0.2-0.4-0.4-0.5-0.5c-0.4,0.7-0.9,1.4-1.2,2c-1.2,0.4-2.5-1.5-3.6,0.3"
			/>
		<path fill="none" stroke="#F3DFC1" stroke-width="1" stroke-linecap="round" stroke-linejoin="round" stroke-miterlimit="10" d="
			M154.4,321.9c0.8,0.6,1.5,1.2,2.3,1.8"/>
		<path fill="none" stroke="#F3DFC1" stroke-width="1" stroke-linecap="round" stroke-linejoin="round" stroke-miterlimit="10" d="
			M351.7,418.6c-0.9,0.3-1.7,0.5-2.5,0.8"/>
		<path fill="none" stroke="#F3DFC1" stroke-width="1" stroke-linecap="round" stroke-linejoin="round" stroke-miterlimit="10" d="
			M161.4,437.4c0.7,0.7,1.4,1.4,2,2"/>
		<path fill="none" stroke="#F3DFC1" stroke-width="1" stroke-linecap="round" stroke-linejoin="round" stroke-miterlimit="10" d="
			M160.9,429.9c0.7,0.7,1.4,1.4,2,2"/>
		<path fill="none" stroke="#F3DFC1" stroke-width="1" stroke-linecap="round" stroke-linejoin="round" stroke-miterlimit="10" d="
			M168.4,515.5c-0.1,0.6-0.2,1.2-0.3,1.8"/>
	</g>
</g>
</svg>
