<?xml version="1.0" encoding="utf-8"?>
<!-- Generator: Adobe Illustrator 18.0.0, SVG Export Plug-In . SVG Version: 6.00 Build 0)  -->
<!DOCTYPE svg PUBLIC "-//W3C//DTD SVG 1.1 Tiny//EN" "http://www.w3.org/Graphics/SVG/1.1/DTD/svg11-tiny.dtd">
<svg version="1.1" baseProfile="tiny" id="Layer_1" xmlns="http://www.w3.org/2000/svg" xmlns:xlink="http://www.w3.org/1999/xlink"
	 x="0px" y="0px" viewBox="80.9 251.5 459.7 285.7" xml:space="preserve">
<g>
	<g>
		<path fill="none" stroke="#F3DFC1" stroke-width="1" stroke-linecap="round" stroke-linejoin="round" stroke-miterlimit="10" d="
			M538.5,283.6c-1.1-0.4-2.2-0.8-3.3-1c-6.2-1.4-12.5-2.7-18.7-4.1c-6.6-1.4-13.2-2.9-19.9-4.3c-6.5-1.4-12.9-2.9-19.4-4.3
			c-6.7-1.5-13.4-2.9-20-4.3c-6.5-1.4-12.9-2.9-19.4-4.3c-7.6-1.7-15.2-3.3-22.7-4.9c-5.5-1.2-11-2.6-16.6-3.7
			c-1.4-0.3-3,0.1-4.5,0.4c-6.9,1.3-13.8,2.6-20.8,3.9c-6.4,1.1-12.8,2.2-19.1,3.3c-5.3,1-10.5,2-15.8,3c-6.4,1.1-12.8,2.2-19.3,3.3
			c-6.3,1.1-12.6,2.4-19,3.6c-6.4,1.1-12.8,2.2-19.1,3.3c-6.4,1.1-12.8,2.4-19.1,3.6c-6.4,1.1-12.8,2.2-19.1,3.3
			c-5.3,1-10.5,2-15.8,3c-6.4,1.1-12.8,2.2-19.3,3.3c-6.3,1.1-12.6,2.4-19,3.6c-6.4,1.1-12.8,2.2-19.1,3.3
			c-6.4,1.1-12.8,2.4-19.1,3.6c-6.4,1.1-12.8,2.2-19.1,3.3c-6.4,1.1-12.8,2.4-19.1,3.6c-6.4,1.1-12.8,2.2-19.1,3.3
			c-3.3,0.6-6.6,1.2-9.9,1.8c-0.4,0.1-0.9,0.4-1.2,0.5c0.6,3.7,1.1,7.3,1.7,10.8c0.1,0.5,0.6,1.2,1,1.5c5.4,3.7,10.9,7.3,16.4,10.9"
			/>
		<path fill="none" stroke="#F3DFC1" stroke-width="1" stroke-linecap="round" stroke-linejoin="round" stroke-miterlimit="10" d="
			M534.9,307.5c-0.5-0.2-1.1-0.6-1.6-0.7c-6.4-1.6-12.9-3.1-19.2-4.9c-1.5-0.4-2.6-0.1-3.8,0.3c-7.1,2-14.2,4.1-21.2,6.1
			c-10.5,3-21.1,6.1-31.7,9.1c-7.5,2.2-14.9,4.3-22.4,6.4c-5.4,1.6-10.8,3.1-16.1,4.6c-7.6,2.2-15.2,4.2-22.7,6.4
			c-7.5,2.2-14.9,4.4-22.4,6.6c-7,2-14,4-20.9,6c-5.4,1.6-10.8,3.1-16.1,4.6c-6.1,1.7-12.2,3.5-18.2,5.2c-9.9,2.8-19.7,5.7-29.6,8.5
			c-7.5,2.2-14.9,4.3-22.4,6.4c-5.4,1.6-10.8,3.1-16.1,4.6c-7.6,2.2-15.2,4.3-22.7,6.4c-7.6,2.2-15.2,4.4-22.9,6.6
			c-3.6,1-7.3,2.2-10.9,3.3c-0.9,0.2-1.8,0.1-2.7-0.5c-6.2-4.2-12.5-8.4-18.8-12.6c-15.8-10.5-31.6-21-47.4-31.5
			c-7.8-5.2-15.7-10.3-23.5-15.5c-5,1-10,2.1-15.3,3.1c0.3,2,0.6,3.9,0.9,5.7c0.2,1.6,0.4,3.2,0.8,4.8c0.1,0.6,0.4,1.3,0.9,1.6
			c8.7,6.6,17.5,13.1,26.3,19.6c7.6,5.6,15.2,11.3,22.9,16.9c11.1,8.2,22.2,16.4,33.3,24.7c7.9,5.8,15.7,11.6,23.6,17.3
			c0.3,0.2,0.6,0.4,0.8,0.6c4.6-1.5,9.1-3,13.6-4.5c4.4-1.4,8.9-2.8,13.3-4.2c6.5-2.1,12.9-4.2,19.4-6.3s12.9-4.2,19.4-6.3
			c9.6-3.1,19.1-6.2,28.7-9.3c6.5-2.1,12.9-4.2,19.4-6.3s12.9-4.2,19.4-6.3s12.9-4.2,19.4-6.3s12.9-4.2,19.4-6.3s12.9-4.2,19.4-6.3
			s12.9-4.2,19.4-6.3s12.9-4.2,19.4-6.3s12.9-4.2,19.4-6.3s12.9-4.2,19.4-6.3c9.6-3.1,19.2-6.3,28.8-9.4c6.3-2,12.7-4,19-6
			c6.6-2.1,13.1-4.3,19.7-6.4c0.6-0.2,1.2-0.4,1.9-0.7c0.5-3.3,1.1-6.8,1.6-10.3c-5.7,1.8-11.1,3.5-16.6,5.2
			c-6.2,1.9-12.4,3.9-18.7,5.8c-7.3,2.2-14.6,4.4-21.8,6.6c-5.7,1.7-11.4,3.6-17,5.3c-5,1.5-10,3-14.9,4.5
			c-8.5,2.6-16.9,5.2-25.4,7.8c-10.4,3.2-20.7,6.4-31.1,9.6c-5.7,1.8-11.4,3.6-17,5.3c-5.1,1.6-10.2,3-15.2,4.5
			c-6.6,2-13.1,4.2-19.7,6.2c-8.8,2.7-17.5,5.4-26.3,8.1c-9.1,2.8-18.1,5.6-27.2,8.4c-5.1,1.6-10.2,2.9-15.2,4.5
			c-6.6,2-13.1,4.2-19.7,6.2c-8.6,2.7-17.3,5.2-26,7.8c-9.7,3-19.4,6-29.1,9c-0.2,0.1-0.4,0.3-0.6,0.4c0.4,4.4,0.8,8.7,1.2,13.1
			c0,0.4-0.1,0.8-0.1,1.2"/>
		<path fill="none" stroke="#F3DFC1" stroke-width="1" stroke-linecap="round" stroke-linejoin="round" stroke-miterlimit="10" d="
			M102.8,358.9c-4.2,1-8.5,2-12.9,3c0.6,3.7,1.1,7.4,1.7,11.1c8.3,6.8,16.7,13.6,25,20.4c8.6,7,17.4,13.9,26,20.9
			c7.2,5.8,14.3,11.8,21.5,17.6c8.6,7,17.3,14,26,20.9c2.2,1.8,4.4,3.5,6.5,5.4c0.7,0.7,1.3,0.6,2.1,0.3c6.4-2.3,12.8-4.6,19.3-6.9
			c6.7-2.4,13.4-4.8,20.2-7.2c5.7-2,11.4-4,17-6c7.6-2.7,15.2-5.5,22.7-8.2c11.4-4.1,22.9-8.2,34.4-12.3c7.8-2.7,15.5-5.5,23.3-8.2
			c8.4-3,16.7-6,25.1-9c11.4-4.1,22.7-8.2,34.1-12.3c8.4-3,16.7-6,25.1-9c5.7-2,11.4-4,17-6c7.6-2.7,15.2-5.5,22.7-8.2
			c11.4-4.1,22.9-8.2,34.4-12.3c7.8-2.7,15.5-5.5,23.3-8.2c4.2-1.5,8.2-3,12.6-4.6c0.5-3.2,1-6.5,1.6-9.9
			c-5.3,1.8-10.3,3.6-15.3,5.3c-11.7,4-23.3,8-35,12c-7.6,2.6-15.2,5.2-22.7,7.8c-11.7,4-23.3,8-35,12c-7.4,2.5-14.8,5-22.1,7.5
			c-10,3.4-19.9,6.9-29.9,10.3c-9.5,3.3-18.9,6.5-28.4,9.7c-7.5,2.5-14.9,5.1-22.4,7.6c-7.7,2.6-15.4,5.3-23.2,7.9
			c-7.8,2.7-15.6,5.4-23.5,8.1c-7.4,2.5-14.8,5-22.1,7.5c-10,3.4-19.9,6.9-29.9,10.3c-8.5,2.9-16.9,5.8-25.4,8.7
			c-0.1,0-0.1,0.1-0.3,0.3c0.4,4.4,0.8,8.9,1.2,13.4"/>
		<path fill="none" stroke="#F3DFC1" stroke-width="1" stroke-linecap="round" stroke-linejoin="round" stroke-miterlimit="10" d="
			M513.4,301.6c1.3-0.4,2.5-1,3.7-1.3c6.6-1.9,13.2-3.8,19.9-5.7c0.4-0.1,0.9-0.7,1-1.2c0.6-3.1,1-6.3,1.6-9.4c-0.7-1-1.1,0-1.6,0.1
			c-4.4,1.1-8.8,2.4-13.1,3.6c-4.6,1.2-9.2,2.4-13.7,3.6c-7.3,2-14.6,3.9-22,6c-5.6,1.6-11.2,3.2-16.9,4.8
			c-7.1,1.9-14.3,3.8-21.4,5.7c-8.7,2.4-17.4,4.8-26.1,7.2c-9.2,2.5-18.3,5-27.5,7.5c-10.4,2.8-20.8,5.6-31.2,8.4
			c-8.7,2.4-17.4,4.8-26.1,7.2c-10.4,2.8-20.8,5.6-31.2,8.4c-8.7,2.4-17.4,4.8-26.1,7.2c-10.4,2.8-20.8,5.6-31.2,8.4
			c-8.7,2.4-17.4,4.8-26.1,7.2c-10.4,2.8-20.8,5.6-31.2,8.4c-0.9,0.2-1.7,0.5-2.5,0.7"/>
		<path fill="none" stroke="#F3DFC1" stroke-width="1" stroke-linecap="round" stroke-linejoin="round" stroke-miterlimit="10" d="
			M424.5,282.3c-2.3-0.7-4.7-1.5-7-2.1c-6.5-1.7-12.9-3.4-19.4-5.1c-1.9-0.5-3.9-1.1-5.8-0.8c-5,0.8-10,2-15,3
			c-6.7,1.4-13.4,2.7-20,4c-5.4,1.1-10.8,2.3-16.1,3.4c-6.5,1.4-13.1,2.7-19.6,4c-7,1.4-14,2.9-21.1,4.3c-7.6,1.6-15.2,3.1-22.7,4.6
			c-6.9,1.4-13.7,2.9-20.6,4.3c-7.5,1.6-15,3.1-22.6,4.6c-6.3,1.3-12.6,2.6-18.8,3.9c-0.5,0.1-0.9,0.4-1.3,0.6"/>
		<path fill="none" stroke="#F3DFC1" stroke-width="1" stroke-linecap="round" stroke-linejoin="round" stroke-miterlimit="10" d="
			M192.4,393c-0.4-4.1-0.8-8.2-1-12.3c-0.1-1.9-0.6-3-2.4-4.1c-9.4-5.7-18.7-11.7-28-17.6c-11.2-7.1-22.4-14.2-33.6-21.2
			c-7.6-4.8-15.2-9.6-22.9-14.3c-7.2-4.6-14.4-9.2-21.7-13.7c-0.1-0.1-0.3-0.1-0.4-0.1"/>
		<path fill="none" stroke="#F3DFC1" stroke-width="1" stroke-linecap="round" stroke-linejoin="round" stroke-miterlimit="10" d="
			M193.9,412.4c-17.1-12.2-34.3-24.3-51.4-36.5c-14.6-10.4-29.3-20.7-43.9-31.1c-4-2.8-8-5.6-12-8.4"/>
		<path fill="none" stroke="#F3DFC1" stroke-width="1" stroke-linecap="round" stroke-linejoin="round" stroke-miterlimit="10" d="
			M296.3,469.1c-6.3,2.6-12.6,5.2-18.8,7.8c-5.8,2.4-11.6,4.7-17.3,7c-2.1,0.8-4.1,1.7-6.1,2.5c-0.6,0.3-1.1,0.7-1.9,1.3
			c1.8,1.4,3.4,2.6,4.9,3.8c8,6.3,16,12.6,24.1,18.8c10.8,8.4,21.6,16.8,32.4,25.3c1.1,0.8,2,0.9,3.3,0.2
			c14.9-7.5,29.9-14.9,44.8-22.3c10.3-5.1,20.6-10.2,30.9-15.4c0.5-0.3,1-0.6,1.9-1c-0.7-0.6-1.2-1.3-1.9-1.6
			c-7.1-4.4-14.1-8.8-21.2-13.1c-5.6-3.4-11.1-6.8-16.7-10.2"/>
		<path fill="none" stroke="#F3DFC1" stroke-width="1" stroke-linecap="round" stroke-linejoin="round" stroke-miterlimit="10" d="
			M196.3,445c-5.4-4.2-10.8-8.5-16.3-12.7c-11.6-9-23.1-18-34.7-27c-7.5-5.9-15-11.8-22.6-17.6c-8.4-6.5-16.8-13.1-25.3-19.6
			c-2.1-1.6-4.1-3.3-6.1-4.9c-0.4-0.3-0.9-0.5-1.3-0.7"/>
		<path fill="none" stroke="#F3DFC1" stroke-width="1" stroke-linecap="round" stroke-linejoin="round" stroke-miterlimit="10" d="
			M323.5,414.5c-0.1,6.8-0.1,13.7-0.1,20.5c-0.1,7.7-0.2,15.3-0.3,23c-0.1,7.6-0.2,15.2-0.3,22.7c-0.1,7.7-0.2,15.3-0.3,23
			c0,1.5-0.2,3-0.3,4.5"/>
		<path fill="none" stroke="#F3DFC1" stroke-width="1" stroke-linecap="round" stroke-linejoin="round" stroke-miterlimit="10" d="
			M423.6,282.1c-6.8,1.6-13.7,3.1-20.5,4.6c-6.2,1.4-12.3,2.8-18.5,4.2c-6.6,1.5-13.1,3-19.7,4.5c-1.3,0.3-2.6,0.7-3.9,1
			c-3.5-1.1-7.1-2.2-10.6-3.4c-6-1.9-12-3.8-18.1-5.7c-0.4-0.1-0.8-0.2-1.2-0.3"/>
		<path fill="none" stroke="#F3DFC1" stroke-width="1" stroke-linecap="round" stroke-linejoin="round" stroke-miterlimit="10" d="
			M360.2,296.5c-6.8,1.6-13.7,3.1-20.5,4.6c-7.1,1.6-14.1,3.2-21.2,4.8c-6.6,1.5-13.1,3-19.7,4.5c-6.2,1.4-12.5,2.9-18.7,4.3
			c-6.5,1.5-12.9,2.9-19.4,4.3c-5.9,1.3-11.9,2.7-17.8,4c-0.3,0.1-0.5,0.2-0.7,0.3"/>
		<path fill="none" stroke="#F3DFC1" stroke-width="1" stroke-linecap="round" stroke-linejoin="round" stroke-miterlimit="10" d="
			M393.7,496.4c-7.1,3.5-14.3,7.1-21.4,10.6c-7.9,3.9-15.7,7.9-23.6,11.8c-7.8,3.9-15.6,7.8-23.5,11.7c-3.1,1.6-6.3,3.1-9.4,4.6
			c-0.4,0.2-1,0.3-0.9,1"/>
		<path fill="none" stroke="#F3DFC1" stroke-width="1" stroke-linecap="round" stroke-linejoin="round" stroke-miterlimit="10" d="
			M357,402.6c-0.3,7.3-0.6,14.6-0.9,22c-0.1,2.7-0.2,5.5-0.3,8.2c-0.3,7.7-0.6,15.4-0.9,23.2c-0.1,3.4-0.2,6.8-0.3,10.2
			c-0.3,7-0.6,14-0.9,21.1c-0.1,2.2,0,4.5,0,6.8c-10.4,4.9-20.8,9.7-31.3,14.7c-1.9-1.3-3.9-2.7-5.9-4.1
			c-6.1-4.4-12.2-8.9-18.4-13.2c-1-0.7-1.3-1.4-1.3-2.6c0-9.4-0.1-18.7-0.1-28.1c0-6.3-0.1-12.6-0.1-18.8
			c-0.1-5.8-0.1-11.7-0.1-17.5"/>
		<path fill="none" stroke="#F3DFC1" stroke-width="1" stroke-linecap="round" stroke-linejoin="round" stroke-miterlimit="10" d="
			M253.1,487.4c9.9,7.7,19.8,15.4,29.7,23.2c10.3,8,20.6,16,30.9,24.1c0.3,0.2,0.6,0.4,0.9,0.6"/>
		<path fill="none" stroke="#F3DFC1" stroke-width="1" stroke-linecap="round" stroke-linejoin="round" stroke-miterlimit="10" d="
			M296.1,294.5c5.8,2,11.6,4,17.3,6c3.6,1.2,7.2,2.5,10.8,3.7"/>
		<path fill="none" stroke="#F3DFC1" stroke-width="1" stroke-linecap="round" stroke-linejoin="round" stroke-miterlimit="10" d="
			M215.3,311.1c2.2,1,4.4,2.2,6.6,3.1c6.5,2.9,13.1,5.8,19.6,8.7c0.3,0.1,0.5,0.6,0.7,0.9"/>
		<path fill="none" stroke="#F3DFC1" stroke-width="1" stroke-linecap="round" stroke-linejoin="round" stroke-miterlimit="10" d="
			M512.5,325c4.4,1.3,8.9,2.6,13.3,3.9c1.7,0.5,3.3,1.1,4.9,1.6"/>
	</g>
</g>
</svg>
