<?xml version="1.0" encoding="utf-8"?>
<!-- Generator: Adobe Illustrator 18.0.0, SVG Export Plug-In . SVG Version: 6.00 Build 0)  -->
<!DOCTYPE svg PUBLIC "-//W3C//DTD SVG 1.1 Tiny//EN" "http://www.w3.org/Graphics/SVG/1.1/DTD/svg11-tiny.dtd">
<svg version="1.1" baseProfile="tiny" id="Layer_1" xmlns="http://www.w3.org/2000/svg" xmlns:xlink="http://www.w3.org/1999/xlink"
	 x="0px" y="0px" viewBox="30.8 274.1 515.4 239.3" xml:space="preserve">
<g>
	<path fill="none" stroke="#F3DFC1" stroke-width="1" stroke-linecap="round" stroke-linejoin="round" stroke-miterlimit="10" d="
		M32.4,306.7c7.7,1,15.3,1.9,23,2.8c5.2,0.7,10.4,1.4,15.5,2.1c7.8,1,15.6,1.9,23.5,2.8s15.6,1.9,23.5,2.8c11.7,1.5,23.3,3,35,4.5
		c6.4,0.8,12.8,1.6,19.1,2.4c9.7,1.2,19.3,2.4,29,3.6c6.4,0.8,12.8,1.6,19.1,2.4c9.7,1.2,19.3,2.4,29,3.6c6.4,0.8,12.8,1.6,19.1,2.4
		c9.7,1.2,19.3,2.4,29,3.6c6.4,0.8,12.8,1.6,19.1,2.4c9.7,1.2,19.3,2.4,29,3.6c6.4,0.8,12.8,1.6,19.1,2.4c9.7,1.2,19.3,2.4,29,3.6
		c6.4,0.8,12.8,1.6,19.1,2.4c9.7,1.2,19.3,2.4,29,3.6c6.4,0.8,12.8,1.6,19.1,2.4c10.5,1.3,20.9,2.6,31.4,3.9
		c6.4,0.8,12.8,1.6,19.1,2.4c9.7,1.2,19.3,2.4,29,3.6c1.6,0.2,3.2,0.4,4.8,0.6"/>
	<path fill="none" stroke="#F3DFC1" stroke-width="1" stroke-linecap="round" stroke-linejoin="round" stroke-miterlimit="10" d="
		M245,420.1c-2.8,4.5-5.7,8.9-8.5,13.4c-6.1,9.8-12.2,19.6-18.2,29.4c-1.4,2.2-2.7,4.5-4.2,6.7c-0.9,1.3-2.1,2.5-3.4,3.9
		c-1.2-0.2-2.7-0.3-4.2-0.6c-7.7-1.6-15.3-3.2-23-4.8c-11.1-2.2-22.1-4.4-33.2-6.6c-5.3-1-10.7-2-16-3c-0.9-0.2-1.6-0.6-2.1-1.5
		c-5.1-7.4-10.3-14.8-15.5-22.1c-6.8-9.7-13.4-19.4-20.2-29.1c-8.3-11.9-16.6-23.8-25-35.7c-6.6-9.5-13.2-19.1-19.9-28.7
		c-5.8-8.4-11.7-16.7-17.4-25.1c-0.9-1.3-1.1-3-1.5-4.6c-0.4-1.5-0.6-3.1-1-4.9c0.5-0.3,1.1-0.7,1.7-0.9c10.2-4.5,20.4-9,30.6-13.4
		c8.6-3.8,17.2-7.6,25.8-11.4c4.2-1.9,8.5-3.8,12.7-5.6c0.7-0.3,1.7-0.4,2.5-0.3c7.4,0.7,14.9,1.6,22.3,2.4
		c8.2,0.8,16.4,1.6,24.7,2.4c5.4,0.5,10.8,1.2,16.3,1.8c8.2,0.8,16.4,1.6,24.7,2.4c8.3,0.9,16.6,1.8,25,2.7
		c8.2,0.8,16.4,1.6,24.7,2.4c5.4,0.5,10.8,1.2,16.3,1.8c8.2,0.8,16.4,1.6,24.7,2.4c8.3,0.9,16.6,1.8,25,2.7
		c8.2,0.8,16.4,1.6,24.7,2.4c5.4,0.5,10.8,1.2,16.3,1.8c8.2,0.8,16.4,1.6,24.7,2.4c5.4,0.5,10.8,1.2,16.3,1.8
		c8.2,0.8,16.4,1.6,24.7,2.4c8.3,0.9,16.6,1.8,25,2.7c8.2,0.8,16.4,1.6,24.7,2.4c5.4,0.5,10.8,1.2,16.3,1.8
		c8.2,0.8,16.4,1.6,24.7,2.4c8.3,0.9,16.6,1.8,25,2.7c4.2,0.4,8.4,0.8,12.7,1.2c0.1,2,0.2,3.8,0.3,5.7c0.2,4.6,0.3,9.3,0.4,13.9
		c0.2,6.6,0.5,13.1,0.7,19.7c0.1,3.1,0.5,6.3,0.4,9.4c-0.1,3-0.8,6-1.3,9c-0.1,0.3-0.1,0.6-0.1,0.9"/>
	<path fill="none" stroke="#F3DFC1" stroke-width="1" stroke-linecap="round" stroke-linejoin="round" stroke-miterlimit="10" d="
		M56.8,318.5c4.2,0.5,8.4,1.1,12.6,1.6c4.4,0.6,8.9,1.1,13.3,1.6c3.4,0.4,6.8,0.9,10.2,1.3c5.1,0.7,10.2,1.3,15.2,1.9
		c3.3,0.4,6.7,0.9,10,1.3c4.4,0.6,8.9,1.1,13.3,1.6c4,0.5,8.1,1.1,12.1,1.6c4.4,0.6,8.9,1.1,13.3,1.6c3.4,0.4,6.8,0.9,10.2,1.3
		c5.1,0.7,10.2,1.3,15.2,1.9c3.3,0.4,6.7,0.9,10,1.3c4.4,0.6,8.9,1.1,13.3,1.6c4,0.5,8.1,1.1,12.1,1.6c4.4,0.6,8.9,1.1,13.3,1.6
		c3.4,0.4,6.8,0.9,10.2,1.3c5.1,0.7,10.2,1.3,15.2,1.9c3.3,0.4,6.6,0.9,9.9,1.3c5.1,0.7,10.2,1.3,15.4,1.9c4.3,0.5,8.7,1.1,13,1.6
		c4.9,0.6,9.9,1.3,14.8,1.9c4.3,0.6,8.7,1.1,13,1.6c4.9,0.6,9.9,1.3,14.8,1.9c4.3,0.6,8.7,1.1,13,1.6c4.9,0.6,9.9,1.3,14.8,1.9
		c4.3,0.6,8.7,1.1,13,1.6c4.9,0.6,9.9,1.3,14.8,1.9c4.3,0.6,8.7,1.1,13,1.6c4.9,0.6,9.9,1.3,14.8,1.9c4.3,0.6,8.7,1.1,13,1.6
		c4.9,0.6,9.9,1.3,14.8,1.9c4.3,0.6,8.7,1.1,13,1.6c5,0.6,10,1.3,14.9,1.9c3.3,0.4,6.6,0.9,9.9,1.3c4.5,0.6,9,1.1,13.4,1.6
		c4,0.5,8,1.1,12,1.6c2.2,0.3,4.4,0.5,6.6,0.8c0.5,0.1,1,0.3,1.5,0.4"/>
	<path fill="none" stroke="#F3DFC1" stroke-width="1" stroke-linecap="round" stroke-linejoin="round" stroke-miterlimit="10" d="
		M543,380.3c-7.7,7.7-15.4,15.4-23,23.2c-2.2,2.2-4.4,4.6-6.6,6.9c-12,12.1-24,24.2-36,36.3c-7,7.1-14,14.3-21.1,21.4
		c-7.3,7.4-14.6,14.7-21.8,22.1c-6.9,7-13.7,14-20.6,20.9c-0.5,0.5-0.9,1-1.3,1.4c-31.6-6-62.9-11.9-94.3-17.9
		c-13.8-23.1-27.6-46.2-41.4-69.4c-10.9-1.8-21.8-3.6-32.8-5.4c-0.9,1.4-1.8,2.8-2.7,4.3c-7,11.3-14,22.5-20.9,33.8
		c-2.7,4.4-5.4,8.8-8.1,13.1c0,0,0.1,0.1,0.1,0.1"/>
	<path fill="none" stroke="#F3DFC1" stroke-width="1" stroke-linecap="round" stroke-linejoin="round" stroke-miterlimit="10" d="
		M284.8,373.7c3.3,0.4,6.7,0.9,10,1.3c3.8,0.5,7.7,1.1,11.5,1.6c2.2,0.3,4.4,0.6,6.7,0.9c11.5,20.4,23.1,40.8,34.7,61.4
		c27.2,4.3,54.5,8.7,82.1,13.1c0.5-0.5,1.2-1.2,1.8-1.9c1.7-1.8,3.3-3.7,4.9-5.5c3.4-3.6,6.8-7.2,10.2-10.8
		c5.3-5.7,10.7-11.4,16-17.2c3.7-4,7.5-8.1,11.2-12.1c5.3-5.7,10.7-11.4,16-17.2c2.4-2.6,4.8-5.2,7.2-7.8c1.1-1.2,2.2-2.5,3.3-3.7"
		/>
	<path fill="none" stroke="#F3DFC1" stroke-width="1" stroke-linecap="round" stroke-linejoin="round" stroke-miterlimit="10" d="
		M34.1,315.5c4.6,0.6,9.3,1.2,13.9,1.8c2.8,0.4,5.7,0.8,8.5,1.2c27.7,40.6,55.3,81.1,82.9,121.5c2.6,0.5,5,1,7.5,1.5
		c5.6,1,11.3,2.1,16.9,3.1c5.6,1,11.1,2.1,16.7,3.1c5.7,1,11.4,2.1,17,3.1c1.7,0.3,3.5,0.7,5.2,1"/>
	<path fill="none" stroke="#F3DFC1" stroke-width="1" stroke-linecap="round" stroke-linejoin="round" stroke-miterlimit="10" d="
		M47.7,317.6c8.6,12.5,17.1,25,25.7,37.5c9.7,14.2,19.5,28.4,29.3,42.6c10.3,15,20.5,30,30.8,45c0.3,0.5,0.7,1,1.2,1.6
		c21.5,4.1,43.3,8.2,65.3,12.5c9.9-16.9,19.9-33.7,29.9-50.8c-14.9-2.4-29.7-4.8-44.5-7.2c-14.9-23.1-29.9-46.2-44.8-69.2"/>
	<path fill="none" stroke="#F3DFC1" stroke-width="1" stroke-linecap="round" stroke-linejoin="round" stroke-miterlimit="10" d="
		M543.6,378.7c-1.3-0.2-2.6-0.6-3.9-0.7c-5.6-0.7-11.3-1.4-16.9-2.1c-0.4,0-0.7,0-0.7,0c-1,1-1.7,1.6-2.4,2.4
		c-4.7,4.9-9.4,9.9-14,14.8c-3.3,3.5-6.6,7-9.9,10.5c-3.9,4.1-7.8,8.2-11.7,12.3c-3.2,3.4-6.4,6.8-9.6,10.2c-4,4.2-8,8.4-12,12.6
		c-3.3,3.4-6.5,6.9-9.7,10.3c-3.9,4.2-7.9,8.3-11.8,12.4c-3.2,3.4-6.4,6.8-9.6,10.2c-4,4.2-8,8.4-12,12.6c-3.1,3.3-6.2,6.6-9.3,9.9
		c-0.3,0.3-0.7,0.5-1,0.7"/>
	<path fill="none" stroke="#F3DFC1" stroke-width="1" stroke-linecap="round" stroke-linejoin="round" stroke-miterlimit="10" d="
		M359.2,422c-2.9-5.3-5.9-10.5-8.8-15.8c-8.2-14.7-16.3-29.5-24.5-44.2c-0.7-1.3-1.5-2-3-2.1c-5.3-0.5-10.6-1.2-15.8-1.9
		c-4-0.5-8.1-1.1-12.1-1.6c-5.6-0.7-11.3-1.5-17-2.3c-0.8,1-1.7,2.1-2.6,3.2c7.6,1,15.4,2.1,23.3,3.1c0.8-0.9,1.6-1.9,2.3-2.8"/>
	<path fill="none" stroke="#F3DFC1" stroke-width="1" stroke-linecap="round" stroke-linejoin="round" stroke-miterlimit="10" d="
		M515.8,378.1c-5.9,6.2-11.8,12.3-17.6,18.5c-3.1,3.3-6.2,6.6-9.3,9.9c-5,5.3-10,10.5-14.9,15.8c-3.1,3.3-6.3,6.7-9.4,10
		c-5,5.3-10.1,10.7-15.1,16c-3.1,3.3-6.2,6.6-9.3,9.9c-5.1,5.4-10.2,10.8-15.2,16.1c-3,3.2-6,6.4-9,9.6c-1.6,1.7-3.5,3.3-4.9,5.3
		c-1,1.4-1.3,3.2-1.9,4.9c-0.1,0.4-0.3,0.8-0.5,1.3c-6.9-1.3-13.7-2.6-20.4-3.8c-5.4-1-10.8-2-16.3-3c-6.9-1.2-13.9-2.4-20.8-3.6
		c-5.1-0.9-10.2-2-15.4-3c-1.8-0.4-3.7-0.6-5.5-0.9c-1-0.1-1.6-0.5-2.1-1.5c-4.5-7.8-9.1-15.6-13.7-23.3
		c-6.9-11.7-13.7-23.3-20.6-35c-2.2-3.8-4.5-7.7-6.7-11.5"/>
	<path fill="none" stroke="#F3DFC1" stroke-width="1" stroke-linecap="round" stroke-linejoin="round" stroke-miterlimit="10" d="
		M147.2,330.4c5.4,8.4,10.7,16.9,16.1,25.3c8.3,13,16.7,25.9,25.1,38.8c0.2,0.4,0.5,0.7,0.7,1c14.3,2.3,28.4,4.5,42.8,6.8
		c-0.7,1.2-1.3,2.2-1.9,3.2"/>
	<path fill="none" stroke="#F3DFC1" stroke-width="1" stroke-linecap="round" stroke-linejoin="round" stroke-miterlimit="10" d="
		M299,360.3c5.3,0.7,10.7,1.4,16,2.1c2.4,0.3,4.8,0.6,7.3,0.9c1.6,2.8,3.2,5.6,4.8,8.5c5.2,9.4,10.5,18.7,15.7,28.1
		c4.5,8,9,15.9,13.2,23.9c1,2,2.5,2.5,4.4,2.8c5.1,0.7,10.2,1.6,15.2,2.4c4.3,0.6,8.6,1.2,12.8,1.8c4.6,0.7,9.2,1.4,13.7,2.1
		c5.2,0.8,10.4,1.6,15.5,2.4c2.9,0.4,5.9,1,9,1.4c0.4-1.3,0.8-2.7,1.3-4.2c-23-3.4-45.8-6.8-68.7-10.3"/>
	<path fill="none" stroke="#F3DFC1" stroke-width="1" stroke-linecap="round" stroke-linejoin="round" stroke-miterlimit="10" d="
		M128.3,328c5.5,8.3,11,16.6,16.4,25c7.9,12,15.7,24,23.6,36c4.9,7.5,9.8,14.9,14.6,22.4"/>
	<path fill="none" stroke="#F3DFC1" stroke-width="1" stroke-linecap="round" stroke-linejoin="round" stroke-miterlimit="10" d="
		M329,480.4c0.8-1.6,1.7-3.1,2.7-4.8c2,0.4,4.1,0.7,6.2,1.1c4.3,0.7,8.7,1.5,13,2.2c3.4,0.6,6.8,1.2,10.2,1.8
		c4.2,0.8,8.5,1.6,12.7,2.4c4.3,0.8,8.7,1.6,13,2.4c5.2,0.9,10.5,1.8,15.7,2.7c2.7,0.5,5.3,1,7.9,1.5"/>
	<path fill="none" stroke="#F3DFC1" stroke-width="1" stroke-linecap="round" stroke-linejoin="round" stroke-miterlimit="10" d="
		M267.5,401.5c2.4,0.4,4.8,0.8,7.2,1.2c4.3,0.7,8.7,1.3,13,1.9c0.9,0.1,1.8,0.2,2.8,0.3c13.7,23.5,27.5,47.1,41.3,70.6"/>
	<path fill="none" stroke="#F3DFC1" stroke-width="1" stroke-linecap="round" stroke-linejoin="round" stroke-miterlimit="10" d="
		M483.2,373.9c-4,4.5-8.1,9.1-12.1,13.6c-1.9,2.2-3.9,4.3-5.8,6.4c-4.2,4.7-8.5,9.5-12.7,14.2c-3.1,3.4-6.2,6.8-9.3,10.2
		c-3.9,4.3-7.6,8.7-11.5,13c-1.5,1.6-3.1,3.1-4.6,4.6"/>
	<path fill="none" stroke="#F3DFC1" stroke-width="1" stroke-linecap="round" stroke-linejoin="round" stroke-miterlimit="10" d="
		M481,373.4c-3.9,4.4-7.8,8.8-11.7,13.1c-1.9,2.2-3.9,4.3-5.8,6.4c-4,4.5-7.9,9-12,13.4c-2.9,3.3-5.9,6.5-8.8,9.7
		c-3.8,4.2-7.5,8.5-11.2,12.7c-1.1,1.2-2.2,2.4-3.3,3.6"/>
	<path fill="none" stroke="#F3DFC1" stroke-width="1" stroke-linecap="round" stroke-linejoin="round" stroke-miterlimit="10" d="
		M274.6,357.5c-4.7,7.7-9.5,15.4-14.2,23.2c-3.5,5.8-7,11.6-10.5,17.3c-0.1,0.2-0.2,0.5-0.3,0.7"/>
	<path fill="none" stroke="#F3DFC1" stroke-width="1" stroke-linecap="round" stroke-linejoin="round" stroke-miterlimit="10" d="
		M222.3,418.3c-2.7-0.5-5.5-1-8.2-1.5c-5-0.9-10.1-1.7-15.1-2.5c-3.9-0.7-7.8-1.3-11.7-1.9c-1.3-0.2-2.5-0.4-3.7-0.6"/>
	<path fill="none" stroke="#F3DFC1" stroke-width="1" stroke-linecap="round" stroke-linejoin="round" stroke-miterlimit="10" d="
		M233.4,401.1c5.4,0.8,10.8,1.7,16.1,2.5c3.9,0.6,7.8,1.3,11.7,1.9c3.6,0.6,7.3,1.1,10.9,1.6c4.4,0.7,8.9,1.4,13.3,2.1
		c0.5,0.1,1,0.1,1.5,0.1"/>
	<path fill="none" stroke="#F3DFC1" stroke-width="1" stroke-linecap="round" stroke-linejoin="round" stroke-miterlimit="10" d="
		M520.3,378.2c3.7,0.5,7.4,1,11.1,1.5c2.7,0.4,5.4,0.7,8.1,1c0.8,0.1,1.6,0.2,2.4,0.3"/>
	<path fill="none" stroke="#F3DFC1" stroke-width="1" stroke-linecap="round" stroke-linejoin="round" stroke-miterlimit="10" d="
		M266.7,401.2c5.8-9.2,11.7-18.5,17.5-27.7c0.1,0,0.2,0.1,0.3,0.1c-0.1,0.3,0,0.7-0.2,1c-5.7,9-11.4,18-17.2,27
		c-3.6-0.6-7.3-1.1-10.9-1.7c-4.7-0.7-9.4-1.5-14-2.2c-1.4-0.2-2.9-0.3-4.3-0.6c-0.8-0.2-1.3-0.1-1.8,0.5c-1.3,1.5-2.6,3-3.9,4.5"/>
	<path fill="none" stroke="#F3DFC1" stroke-width="1" stroke-linecap="round" stroke-linejoin="round" stroke-miterlimit="10" d="
		M254,421.7c-0.4,0.5-0.8,1.1-1.3,1.6c-2.8-0.5-5.7-1-8.6-1.5"/>
	<path fill="none" stroke="#F3DFC1" stroke-width="1" stroke-linecap="round" stroke-linejoin="round" stroke-miterlimit="10" d="
		M139.3,440.2c-1.4,1.3-2.9,2.5-4.3,3.7"/>
	<path fill="none" stroke="#F3DFC1" stroke-width="1" stroke-linecap="round" stroke-linejoin="round" stroke-miterlimit="10" d="
		M290,405.3c-1,1.3-1.9,2.6-2.8,3.9"/>
	<path fill="none" stroke="#F3DFC1" stroke-width="1" stroke-linecap="round" stroke-linejoin="round" stroke-miterlimit="10" d="
		M263.3,401.4c-1.1,1.3-2.2,2.5-3.3,3.7"/>
	<path fill="none" stroke="#F3DFC1" stroke-width="1" stroke-linecap="round" stroke-linejoin="round" stroke-miterlimit="10" d="
		M359.2,422.6c-0.6,1-1.2,2.1-1.8,3.1"/>
	<path fill="none" stroke="#F3DFC1" stroke-width="1" stroke-linecap="round" stroke-linejoin="round" stroke-miterlimit="10" d="
		M188.9,395.7c-1,0.9-2,1.8-3,2.7"/>
	<path fill="none" stroke="#F3DFC1" stroke-width="1" stroke-linecap="round" stroke-linejoin="round" stroke-miterlimit="10" d="
		M324.5,360.4c-0.7,0.9-1.4,1.8-2.1,2.7"/>
	<path fill="none" stroke="#F3DFC1" stroke-width="1" stroke-linecap="round" stroke-linejoin="round" stroke-miterlimit="10" d="
		M544.5,376.1c-0.1,0.8-0.1,1.7-0.1,2.5"/>
	<path fill="none" stroke="#F3DFC1" stroke-width="1" stroke-linecap="round" stroke-linejoin="round" stroke-miterlimit="10" d="
		M543.6,379.3c-0.2,0.6-0.3,1.2-0.5,1.9c-0.2,0-0.4-0.1-0.7-0.1"/>
	<path fill="none" stroke="#F3DFC1" stroke-width="1" stroke-linecap="round" stroke-linejoin="round" stroke-miterlimit="10" d="
		M544.3,378.8c-0.2,0.1-0.4,0.2-0.7,0.3c-0.1-0.1-0.1-0.2-0.1-0.3c0.2-0.1,0.4-0.2,0.7-0.3"/>
</g>
</svg>
